<?xml version="1.0" encoding="UTF-8" standalone="no"?><!-- Generator: Gravit.io --><svg xmlns="http://www.w3.org/2000/svg" xmlns:xlink="http://www.w3.org/1999/xlink" style="isolation:isolate" viewBox="0 0 1000 1000" width="1000pt" height="1000pt"><defs><clipPath id="_clipPath_zfCEzd1YKcpb6O1WqTa8dFkZ1XladuyG"><rect width="1000" height="1000"/></clipPath></defs><g clip-path="url(#_clipPath_zfCEzd1YKcpb6O1WqTa8dFkZ1XladuyG)"><rect x="688" y="684.266" width="116.646" height="112.988" transform="matrix(1,0,0,1,0,0)" fill="rgb(57,179,74)"/><path d=" M 858.076 218.702 L 557.883 40.496 C 522.189 19.292 477.757 19.308 442.077 40.536 L 141.885 218.702 C 105.78 240.49 83.795 279.661 84.001 321.83 L 84.001 678.202 C 84.001 720.713 106.069 760.054 141.924 781.33 L 442.117 959.496 C 477.794 980.696 522.206 980.696 557.883 959.496 L 858.076 781.33 C 894.195 759.551 916.197 720.379 915.998 678.202 L 915.998 321.83 C 916.212 279.649 894.207 240.469 858.076 218.702 L 858.076 218.702 L 858.076 218.702 Z  M 625.592 775.189 L 626.107 800.783 C 626.147 803.873 624.126 807.399 621.709 808.627 L 606.535 817.343 C 604.118 818.572 602.137 817.066 602.098 813.976 L 601.821 788.818 C 588.826 794.206 575.672 795.513 567.273 792.146 C 565.688 791.512 565.015 789.174 565.648 786.52 L 571.156 763.382 C 571.573 761.549 572.524 759.881 573.889 758.589 C 574.315 758.182 574.795 757.835 575.315 757.558 C 576.187 757.123 577.019 757.004 577.772 757.321 C 586.845 760.371 598.413 758.945 609.546 753.319 C 623.69 746.148 633.159 731.727 633.001 717.385 C 632.882 704.39 625.83 698.962 608.714 698.843 C 586.924 698.883 566.56 694.604 566.243 662.513 C 565.965 636.087 579.713 608.591 601.464 591.199 L 601.187 565.367 C 601.147 562.198 603.088 558.711 605.584 557.443 L 620.243 548.093 C 622.66 546.865 624.641 548.371 624.681 551.54 L 624.918 577.411 C 635.734 573.093 645.164 571.944 653.682 573.925 C 655.544 574.4 656.336 576.936 655.583 579.907 L 649.878 602.807 C 649.441 604.54 648.553 606.126 647.303 607.403 C 646.858 607.845 646.351 608.218 645.798 608.512 C 645.112 608.897 644.31 609.024 643.539 608.869 C 639.657 607.997 630.386 605.977 615.846 613.346 C 600.592 621.071 595.244 634.344 595.363 644.169 C 595.482 655.936 601.504 659.502 622.343 659.858 C 650.076 660.334 662.081 672.457 662.358 700.388 C 662.636 727.686 648.016 757.162 625.592 775.189 Z  M 782.998 732.123 C 782.998 734.5 782.681 736.719 780.7 737.868 L 704.79 783.984 C 702.809 785.133 701.224 784.143 701.224 781.766 L 701.224 762.194 C 701.224 759.817 702.69 758.509 704.671 757.36 L 779.432 712.631 C 781.413 711.482 782.998 712.472 782.998 714.849 L 782.998 732.123 L 782.998 732.123 Z  M 835.136 293.859 L 551.148 469.252 C 515.729 489.972 489.62 513.189 489.62 555.898 L 489.62 905.852 C 489.62 931.406 499.921 947.967 515.768 952.761 C 510.567 953.732 505.291 954.249 500 954.306 C 483.36 954.306 466.997 949.789 452.576 941.232 L 152.384 763.066 C 122.73 745.087 104.671 712.88 104.801 678.202 L 104.801 321.83 C 104.801 286.926 123.026 254.398 152.384 236.966 L 452.576 58.76 C 481.804 41.381 518.196 41.381 547.424 58.76 L 847.616 236.966 C 872.336 251.94 889.205 277.042 893.733 305.586 C 883.749 284.35 861.324 278.566 835.136 293.859 Z " fill="rgb(242,242,242)"/></g></svg>