<?xml version="1.0" encoding="UTF-8" standalone="no"?><!-- Generator: Gravit.io --><svg xmlns="http://www.w3.org/2000/svg" xmlns:xlink="http://www.w3.org/1999/xlink" style="isolation:isolate" viewBox="0 0 1000 1000" width="1000pt" height="1000pt"><defs><clipPath id="_clipPath_LgSHg3zGdMZ8fTdECBnV9QMK8mqftWxs"><rect width="1000" height="1000"/></clipPath></defs><g clip-path="url(#_clipPath_LgSHg3zGdMZ8fTdECBnV9QMK8mqftWxs)"><path d=" M 22.539 854.395 C 22.539 922.398 77.641 977.5 145.644 977.5 L 854.356 977.5 C 922.359 977.5 977.461 922.398 977.461 854.395 L 977.461 145.605 C 977.461 77.602 922.359 22.5 854.356 22.5 L 145.644 22.5 C 77.641 22.5 22.539 77.602 22.539 145.605 L 22.539 854.395 L 22.539 854.395 L 22.539 854.395 Z  M 418.59 444.898 L 418.59 309.668 L 537.654 309.668 C 549.001 309.668 559.96 310.601 570.451 312.466 C 580.943 314.331 590.27 317.751 598.43 322.57 C 606.513 327.466 613.041 334.15 617.859 342.854 C 622.756 351.481 625.165 362.594 625.165 376.04 C 625.165 400.365 617.859 417.852 603.326 428.655 C 588.715 439.458 570.141 444.82 547.447 444.82 L 418.59 444.82 L 418.59 444.898 L 418.59 444.898 Z  M 418.59 690.332 L 418.59 531.554 L 557.084 531.554 C 584.596 531.554 606.746 537.926 623.533 550.594 C 640.242 563.263 648.636 584.48 648.636 614.168 C 648.636 629.323 646.071 641.68 640.942 651.395 C 635.812 661.11 628.895 668.804 620.269 674.477 C 611.642 680.151 601.616 684.192 590.27 686.601 C 578.923 689.01 567.032 690.254 554.597 690.254 L 418.59 690.254 L 418.59 690.332 L 418.59 690.332 Z  M 291.443 210.889 L 291.443 789.111 L 571.617 789.111 C 597.497 789.111 622.756 785.847 647.315 779.397 C 671.874 772.946 693.712 762.92 712.909 749.397 C 732.105 735.874 747.338 718.466 758.685 697.171 C 770.032 675.876 775.705 650.618 775.705 621.473 C 775.705 585.334 766.923 554.403 749.359 528.756 C 731.794 503.109 705.215 485.156 669.62 474.897 C 695.5 462.462 715.085 446.53 728.375 427.1 C 741.587 407.671 748.193 383.345 748.193 354.201 C 748.193 327.233 743.763 304.539 734.825 286.198 C 725.888 267.856 713.375 253.167 697.132 242.054 C 680.967 231.018 661.537 223.013 638.843 218.194 C 616.15 213.298 591.047 210.889 563.535 210.889 L 291.443 210.889 L 291.443 210.889 L 291.443 210.889 Z " fill-rule="evenodd" fill="rgb(255,255,255)"/></g></svg>