<?xml version="1.0" encoding="UTF-8" standalone="no"?><!-- Generator: Gravit.io --><svg xmlns="http://www.w3.org/2000/svg" xmlns:xlink="http://www.w3.org/1999/xlink" style="isolation:isolate" viewBox="0 0 1000 1000" width="1000pt" height="1000pt"><defs><clipPath id="_clipPath_5xeIzbQ2gCJKpnp4ZbfGwlHEr1dCl87P"><rect width="1000" height="1000"/></clipPath></defs><g clip-path="url(#_clipPath_5xeIzbQ2gCJKpnp4ZbfGwlHEr1dCl87P)"><rect x="87" y="197" width="860" height="751" transform="matrix(1,0,0,1,0,0)" fill="rgb(23,37,45)"/><path d=" M 96.222 219.778 L 931.778 219.778 L 931.778 924.778 L 96.222 924.778 L 96.222 219.778 L 96.222 219.778 Z  M 957.889 37 L 70.111 37 C 54.392 37 44 47.392 44 63.111 L 44 977 L 984 977 L 984 63.111 C 984 47.392 973.608 37 957.889 37 L 957.889 37 Z  M 279 128.389 C 279 150.02 261.464 167.556 239.833 167.556 C 218.202 167.556 200.667 150.02 200.667 128.389 C 200.667 106.758 218.202 89.222 239.833 89.222 C 261.464 89.222 279 106.758 279 128.389 L 279 128.389 Z  M 174.556 128.389 C 174.556 150.02 157.02 167.556 135.389 167.556 C 113.758 167.556 96.222 150.02 96.222 128.389 C 96.222 106.758 113.758 89.222 135.389 89.222 C 157.02 89.222 174.556 106.758 174.556 128.389 L 174.556 128.389 Z " fill-rule="evenodd" fill="rgb(207,216,220)"/><g><path d=" M 474.162 668.24 L 467.056 625.604 C 473.708 620.793 479.883 615.374 485.532 609.409 L 527.173 621.604 C 532.165 623.067 537.486 620.734 539.793 616.072 L 558.167 578.843 C 560.493 574.134 559.065 568.434 554.792 565.379 L 519.777 540.348 C 521.12 532.172 521.677 523.887 521.439 515.605 L 559.311 494.908 C 563.881 492.413 565.997 486.994 564.326 482.063 L 550.999 442.735 C 549.313 437.76 544.27 434.741 539.089 435.604 L 496.866 442.626 C 492.017 435.862 486.571 429.606 480.602 423.946 L 493.01 382.935 C 494.536 377.922 492.205 372.543 487.505 370.227 L 450.282 351.839 C 445.623 349.531 439.978 350.909 436.906 355.105 L 411.537 389.624 C 403.284 388.27 394.921 387.706 386.561 387.939 L 366.437 350.326 C 363.955 345.706 358.5 343.552 353.531 345.229 L 314.203 358.557 C 309.281 360.225 306.266 365.184 307.057 370.324 L 313.503 412.584 C 306.73 417.47 300.424 423.002 294.697 429.106 L 253.855 416.731 C 248.839 415.21 243.459 417.54 241.137 422.24 L 222.729 459.469 C 220.425 464.133 221.804 469.778 225.998 472.855 L 260.619 498.258 C 259.291 506.458 258.746 514.767 258.997 523.088 L 221.192 543.345 C 216.574 545.817 214.419 551.266 216.098 556.228 L 229.426 595.555 C 231.092 600.478 236.049 603.496 241.187 602.715 L 283.92 596.199 C 288.81 602.948 294.304 609.176 300.347 614.822 L 288.175 656.331 C 286.712 661.33 289.05 666.659 293.711 668.96 L 330.964 687.338 C 335.673 689.67 341.378 688.235 344.424 683.954 L 369.528 648.789 C 377.641 650.09 385.851 650.612 394.054 650.378 L 414.875 688.479 C 417.372 693.043 422.788 695.155 427.716 693.484 L 467.044 680.157 C 472.01 678.458 475.021 673.418 474.162 668.24 L 474.162 668.24 Z  M 337.887 537.223 C 328.072 508.26 343.594 476.826 372.556 467.011 C 401.518 457.196 432.953 472.718 442.768 501.68 C 452.583 530.642 437.061 562.077 408.099 571.892 C 379.137 581.707 347.702 566.185 337.887 537.223 Z " fill="rgb(255,255,255)"/><path d=" M 688.755 791.94 L 695.972 759.884 C 701.507 758.45 706.917 756.571 712.149 754.266 L 738.006 774.809 C 742.082 778.043 747.892 777.883 751.783 774.428 L 776.371 752.597 C 780.321 749.125 781.145 743.29 778.312 738.859 L 760.817 711.206 C 763.766 706.236 766.301 701.033 768.398 695.648 L 801.03 691.91 C 806.207 691.318 810.207 687.088 810.51 681.886 L 812.45 649.05 C 812.755 643.812 809.222 639.124 804.103 637.973 L 772.379 630.835 C 770.966 625.247 769.092 619.785 766.777 614.506 L 787.237 589.174 C 790.525 585.101 790.393 579.25 786.924 575.329 L 765.104 550.738 C 761.651 546.85 755.906 546.001 751.477 548.725 L 723.717 565.77 C 718.695 562.786 713.433 560.224 707.986 558.112 L 704.565 525.881 C 704.044 520.655 699.788 516.591 694.544 516.311 L 661.714 514.357 C 656.525 514.044 651.862 517.505 650.657 522.562 L 643.098 554.179 C 637.429 555.625 631.892 557.547 626.546 559.924 L 601.327 539.528 C 597.255 536.236 591.401 536.368 587.482 539.841 L 562.87 561.669 C 558.957 565.108 558.106 570.871 560.857 575.295 L 577.967 603.112 C 575.009 608.109 572.47 613.336 570.373 618.766 L 537.966 622.201 C 532.757 622.755 528.715 626.988 528.395 632.222 L 526.438 665.041 C 526.122 670.232 529.579 674.9 534.636 676.112 L 566.627 683.77 C 568.085 689.381 570.002 694.862 572.361 700.157 L 551.886 725.912 C 548.656 730.005 548.828 735.819 552.266 739.689 L 574.111 764.284 C 577.599 768.212 583.421 769.033 587.859 766.221 L 615.606 748.638 C 620.538 751.542 625.698 754.039 631.035 756.104 L 634.801 788.885 C 635.362 794.074 639.603 798.09 644.814 798.368 L 677.644 800.322 C 682.908 800.597 687.605 797.06 688.755 791.94 L 688.755 791.94 Z  M 666.837 701.055 C 651.058 700.309 636.9 691.135 629.773 677.038 C 622.646 662.941 623.652 646.1 632.407 632.951 C 641.161 619.803 656.311 612.379 672.067 613.518 C 696.009 615.247 714.11 635.907 712.679 659.868 C 711.247 683.83 690.815 702.188 666.837 701.055 L 666.837 701.055 Z " fill="rgb(255,255,255)"/></g></g></svg>