<?xml version="1.0" encoding="UTF-8" standalone="no"?><!-- Generator: Gravit.io --><svg xmlns="http://www.w3.org/2000/svg" xmlns:xlink="http://www.w3.org/1999/xlink" style="isolation:isolate" viewBox="0 0 1000 1000" width="1000pt" height="1000pt"><defs><clipPath id="_clipPath_EM5zpMaXW8ekVQKnQ8yQNNRMYIOF48mx"><rect width="1000" height="1000"/></clipPath></defs><g clip-path="url(#_clipPath_EM5zpMaXW8ekVQKnQ8yQNNRMYIOF48mx)"><g><path d=" M 316.838 10.953 L 421.892 11.031 L 421.86 54.962 L 360.738 54.917 L 360.706 98.849 L 421.828 98.894 L 421.795 142.826 L 316.742 142.749 L 316.838 10.953 L 316.838 10.953 Z " fill="rgb(33,150,243)"/><path d=" M 442.902 11.046 L 547.959 11.123 L 547.931 49.324 L 486.809 49.28 L 486.803 56.92 L 547.925 56.965 L 547.861 144.828 L 442.804 144.751 L 442.833 104.64 L 503.956 104.685 L 503.961 97.044 L 442.839 97 L 442.902 11.046 L 442.902 11.046 Z " fill="rgb(33,150,243)"/><path d=" M 568.969 11.138 L 674.022 11.215 L 673.994 49.417 L 612.872 49.372 L 612.866 57.012 L 673.988 57.057 L 673.924 144.921 L 568.871 144.844 L 568.9 104.732 L 630.023 104.777 L 630.028 97.137 L 568.906 97.092 L 568.969 11.138 L 568.969 11.138 Z " fill="rgb(33,150,243)"/><path d=" M 499.065 989.047 L 216.174 910.289 L 133.265 203.01 L 866.735 203.548 L 782.849 910.594 L 499.065 989.047 L 499.065 989.047 Z  M 297.954 523.256 L 305.664 609.998 L 606.271 610.219 L 596.119 722.701 L 499.36 748.742 L 499.274 748.77 L 402.693 722.616 L 396.568 653.433 L 309.498 653.37 L 321.55 789.572 L 499.187 839.024 L 677.147 789.828 L 699.011 546.842 L 701.147 523.552 L 716.936 348.002 L 282.464 347.684 L 290.285 434.427 L 621.814 434.67 L 613.856 523.488 L 297.954 523.256 L 297.954 523.256 Z " fill-rule="evenodd" fill="rgb(33,150,243)"/></g></g></svg>