<?xml version="1.0" encoding="UTF-8" standalone="no"?><!-- Generator: Gravit.io --><svg xmlns="http://www.w3.org/2000/svg" xmlns:xlink="http://www.w3.org/1999/xlink" style="isolation:isolate" viewBox="0 0 1000 1000" width="1000pt" height="1000pt"><defs><clipPath id="_clipPath_rs5IPwzQc2UzD7WFISVX6gxlCbAB5qGr"><rect width="1000" height="1000"/></clipPath></defs><g clip-path="url(#_clipPath_rs5IPwzQc2UzD7WFISVX6gxlCbAB5qGr)"><path d=" M 573.682 526.562 C 558.083 526.867 576.654 534.59 597.005 537.766 C 602.645 533.396 607.726 528.95 612.273 524.682 C 599.571 527.73 586.664 527.73 573.657 526.562 M 657.343 505.729 C 666.566 493.026 673.324 478.926 675.686 464.445 C 673.603 474.759 667.963 483.677 662.704 493.102 C 633.614 511.471 660.011 482.178 662.704 471.177 C 631.455 510.48 658.436 494.703 657.343 505.729 Z  M 688.212 425.447 C 690.092 397.449 682.622 406.265 680.158 416.885 C 683.029 418.485 685.315 436.752 688.212 425.421 M 514.639 42.047 C 522.972 43.571 532.601 44.74 531.305 46.722 C 540.324 44.74 542.407 42.962 514.613 42.072 M 531.305 46.722 L 525.335 47.916 L 530.797 47.509 L 531.305 46.747 M 790.419 436.041 C 791.41 461.269 783.052 473.464 775.633 495.109 L 762.143 501.842 C 751.116 523.183 763.235 515.434 755.283 532.405 C 738.109 547.699 703.074 580.244 691.87 583.318 C 683.74 583.039 697.434 573.588 699.238 569.93 C 676.296 585.707 680.768 593.633 645.631 603.262 L 644.539 600.976 C 557.702 641.879 437.126 560.987 438.701 450.446 C 437.71 457.382 436.033 455.705 434.128 458.474 C 429.682 401.718 460.347 344.554 512.124 321.232 C 562.859 296.207 622.309 306.547 658.614 340.286 C 638.67 314.194 598.986 286.502 551.935 289.068 C 505.798 289.779 462.735 319.149 448.33 350.906 C 424.702 365.794 421.933 408.272 411.72 415.996 C 397.924 517.721 437.71 561.698 505.213 613.399 C 515.808 620.538 508.186 621.63 509.659 627.093 C 486.734 616.206 466.35 600.626 449.829 581.362 C 458.848 594.548 468.476 607.251 480.874 617.184 C 459.838 610.122 431.562 566.068 423.33 564.264 C 459.737 629.481 571.091 678.59 629.448 654.201 C 602.467 655.166 568.22 654.785 537.86 643.556 C 525.157 637.026 507.881 623.409 510.853 620.843 C 590.551 650.619 672.714 643.378 741.488 588.196 C 759.068 574.477 778.224 551.358 783.763 550.977 C 775.43 563.476 785.262 557.023 778.809 568.151 C 796.263 539.951 771.187 556.719 796.847 519.524 L 806.298 532.507 C 802.741 509.184 835.388 480.806 832.009 443.891 C 839.453 432.586 840.342 456.01 832.39 482 C 843.416 453.114 835.286 448.566 838.055 424.735 C 841.129 432.763 845.194 441.198 847.201 449.633 C 840.037 421.864 854.518 402.708 858.202 386.525 C 854.645 384.95 847.176 398.847 845.397 365.895 C 845.702 351.592 849.361 358.451 850.86 354.869 C 848.065 353.294 840.723 342.268 836.175 321.232 C 839.453 316.354 844.889 334.138 849.259 334.824 C 846.49 318.158 841.637 305.353 841.333 292.549 C 828.426 265.542 836.759 296.105 826.343 280.837 C 812.548 237.951 837.776 270.928 839.351 251.467 C 860.184 281.624 872.099 328.472 877.561 347.832 C 873.304 324.411 866.926 301.426 858.507 279.16 C 864.858 281.827 848.268 230.635 866.738 264.551 C 847.074 192.221 782.467 124.54 723.145 92.782 C 730.487 99.413 739.608 107.772 736.356 109.042 C 706.758 91.588 711.915 90.191 707.749 82.646 C 683.74 72.915 682.038 83.535 666.159 82.646 C 620.81 58.739 612.07 61.203 570.379 46.137 L 572.386 54.953 C 542.204 45.045 537.25 58.739 504.807 55.055 C 502.825 53.48 515.223 49.516 525.436 48.017 C 496.372 51.777 497.744 42.174 469.366 49.11 C 476.428 44.029 483.771 40.878 491.215 36.712 C 467.587 38.185 434.636 50.507 444.849 39.278 C 406.232 56.554 337.687 80.766 299.172 116.893 L 297.978 108.661 C 280.321 129.9 221.074 171.972 216.298 199.36 L 211.547 200.452 C 202.401 216.026 196.456 233.607 189.19 249.587 C 177.097 270.115 171.66 257.514 173.337 260.69 C 149.709 308.529 138.023 348.823 127.784 381.876 C 135.025 392.571 127.987 446.762 130.655 490.13 C 118.841 704.301 281.007 912.121 458.136 960.138 C 484.152 969.462 522.769 969.182 555.618 970.046 C 516.9 958.944 511.844 964.203 474.142 950.992 C 446.856 938.213 440.886 923.528 421.628 906.862 L 429.275 920.327 C 391.37 906.963 407.248 903.788 376.482 894.057 L 384.612 883.234 C 372.417 882.447 352.092 862.681 346.605 851.782 L 333.216 852.29 C 317.032 832.423 308.496 818.043 309.08 806.915 L 304.736 814.664 C 299.858 806.229 245.489 740.022 273.664 755.519 C 268.405 750.641 261.47 747.669 253.924 733.873 L 259.666 727.319 C 246.074 709.865 234.666 687.533 235.556 680.064 C 242.695 689.82 247.75 691.598 252.832 693.275 C 218.483 608.242 216.501 688.626 190.587 606.743 L 196.05 606.235 C 191.883 600.01 189.317 592.947 185.938 586.291 L 188.326 562.486 C 163.606 533.904 181.365 441.02 184.947 390.107 C 187.437 369.35 205.577 347.324 219.372 312.797 L 210.937 311.4 C 227.019 283.326 302.754 198.776 337.687 203.12 C 354.76 181.779 334.384 203.12 331.031 197.683 C 368.352 159.066 380.064 170.372 405.267 163.436 C 432.349 147.354 381.944 169.788 394.85 157.39 C 441.775 145.271 428.081 130.078 489.233 124.032 C 495.661 127.716 474.244 129.697 468.985 134.448 C 507.983 115.292 592.635 119.56 647.588 145.068 C 711.432 174.843 783.077 262.951 785.948 345.85 L 789.124 346.739 C 787.548 379.691 794.205 417.799 782.569 452.834 L 790.419 436.066 M 403.666 547.979 L 401.481 558.903 C 411.821 572.775 419.951 587.866 432.959 598.689 C 423.533 580.321 416.572 572.673 403.666 547.979 Z  M 427.878 546.963 C 422.441 541.018 419.24 533.879 415.683 526.638 C 419.164 539.239 426.099 550.062 432.654 561.063 L 427.878 546.988 M 856.119 453.876 L 853.832 459.643 C 849.556 489.797 840.41 519.056 826.75 546.277 C 841.954 517.467 851.899 486.177 856.119 453.876 Z  M 517.713 34.629 C 528.231 30.741 543.627 32.545 554.805 29.954 C 540.223 31.148 525.741 31.935 511.463 33.816 L 517.713 34.629 Z  M 148.033 231.219 C 150.421 253.652 131.061 262.468 152.301 247.58 C 163.606 222.073 147.829 240.467 148.033 231.219 Z  M 123.135 335.23 C 127.962 320.241 128.877 311.298 130.757 302.559 C 117.266 319.834 124.608 323.518 123.135 335.23 Z " fill="rgb(233,30,99)"/></g></svg>