<?xml version="1.0" encoding="UTF-8" standalone="no"?><!-- Generator: Gravit.io --><svg xmlns="http://www.w3.org/2000/svg" xmlns:xlink="http://www.w3.org/1999/xlink" style="isolation:isolate" viewBox="0 0 1000 1000" width="1000pt" height="1000pt"><defs><clipPath id="_clipPath_d3AhBdW9H02HkI6wqOsLlUnfjc7BGdLx"><rect width="1000" height="1000"/></clipPath></defs><g clip-path="url(#_clipPath_d3AhBdW9H02HkI6wqOsLlUnfjc7BGdLx)"><path d=" M 546.217 173.897 C 547.935 170.709 551.305 168.627 555.069 168.653 C 556.378 168.671 557.673 168.935 558.885 169.432 C 641.06 206.197 699.088 348.581 699.088 513.709 C 699.501 576.311 690.495 638.62 672.372 698.543 L 672.372 698.543 L 672.372 698.543 L 672.45 698.777 C 671.181 703.014 667.292 705.923 662.869 705.943 C 660.225 705.943 657.689 704.892 655.819 703.023 C 653.95 701.153 652.899 698.617 652.899 695.973 C 652.897 694.917 653.054 693.866 653.367 692.857 C 670.814 634.757 679.452 574.37 678.993 513.709 C 678.993 355.591 624.08 220.451 550.785 187.659 C 548.612 186.645 546.951 184.928 546.003 182.871 C 545.503 187.144 544.41 191.39 542.71 195.493 C 535.32 213.335 517.91 224.968 498.598 224.968 L 498.598 224.968 L 498.598 224.89 C 485.942 224.911 473.797 219.898 464.84 210.956 C 455.884 202.014 450.851 189.877 450.851 177.221 C 450.851 157.909 462.484 140.499 480.326 133.109 C 498.168 125.718 518.705 129.804 532.36 143.459 C 540.675 151.774 545.441 162.64 546.217 173.897 Z  M 255.112 579.448 C 298.468 625.898 348.663 665.455 403.961 696.752 C 544.943 778.225 695.116 800.346 769.19 749.484 C 772.027 747.665 773.732 744.519 773.708 741.149 C 773.545 737.537 771.44 734.296 768.206 732.679 C 764.972 731.062 761.116 731.323 758.13 733.36 C 691.299 778.225 548.993 757.506 413.931 679.538 C 360.464 649.244 311.947 610.945 270.067 565.973 C 268.053 563.826 265.221 562.636 262.278 562.702 C 259.634 562.702 257.098 563.752 255.228 565.622 C 253.358 567.492 252.308 570.028 252.308 572.672 C 252.321 575.167 253.233 577.573 254.878 579.448 L 255.112 579.448 L 255.112 579.448 L 255.112 579.448 L 255.112 579.448 L 255.112 579.448 Z  M 749.094 547.669 C 812.731 472.505 834.774 396.795 804.397 343.907 C 781.886 304.962 734.295 284.321 671.126 283.542 C 665.619 283.542 661.156 288.006 661.156 293.512 C 661.156 299.018 665.619 303.482 671.126 303.482 C 727.986 304.183 768.956 321.942 787.339 353.877 C 812.731 397.808 792.947 465.261 734.061 534.817 C 731.766 537.6 731.129 541.396 732.391 544.776 C 733.653 548.155 736.622 550.605 740.18 551.202 C 743.738 551.798 747.344 550.452 749.639 547.669 L 749.094 547.669 L 749.094 547.669 L 749.094 547.669 L 749.094 547.669 Z  M 349.593 723.39 C 382.853 816.314 437.298 873.563 498.598 873.563 C 543.229 873.563 584.278 843.108 616.758 789.519 C 617.752 787.963 618.267 786.148 618.238 784.301 C 618.222 779.819 615.218 775.899 610.895 774.718 C 606.571 773.537 601.992 775.386 599.7 779.238 C 570.725 827.452 535.129 853.623 498.442 853.623 C 447.58 853.623 398.976 802.605 368.209 716.692 C 366.624 712.098 361.959 709.316 357.164 710.106 C 352.37 710.895 348.843 715.026 348.814 719.885 C 348.787 721.083 348.999 722.275 349.437 723.39 L 349.593 723.39 L 349.593 723.39 L 349.593 723.39 Z  M 821.221 682.965 C 821.221 694.212 814.446 704.351 804.055 708.655 C 793.664 712.959 781.704 710.58 773.751 702.628 C 765.799 694.675 763.42 682.715 767.724 672.324 C 772.028 661.933 782.167 655.158 793.414 655.158 C 800.795 655.137 807.88 658.06 813.099 663.28 C 818.319 668.499 821.242 675.584 821.221 682.965 L 821.221 682.965 L 821.221 682.965 Z  M 202.769 723.39 C 191.523 723.39 181.383 716.615 177.079 706.225 C 172.775 695.834 175.154 683.874 183.107 675.921 C 191.06 667.968 203.02 665.589 213.411 669.893 C 223.801 674.197 230.576 684.336 230.576 695.583 C 230.576 710.941 218.127 723.39 202.769 723.39 L 202.769 723.39 L 202.769 723.39 Z  M 183.778 651.779 C 184.863 649.9 185.347 647.657 185.01 645.344 C 173.171 565.506 262.901 448.047 402.559 367.586 C 456.006 336.145 513.992 313.155 574.463 299.432 C 579.571 298.52 583.126 293.844 582.638 288.679 C 582.15 283.514 577.782 279.586 572.594 279.647 C 571.843 279.567 571.086 279.567 570.335 279.647 L 569.946 279.881 L 569.946 279.881 C 507.477 293.993 447.552 317.637 392.277 349.983 C 324.103 389.62 266.903 438.061 226.85 487.611 C 227.039 485.489 226.534 483.327 225.358 481.462 C 196.382 430.911 190.774 385.579 209.78 353.098 C 235.25 309.012 303.794 292.499 393.679 308.856 L 395.315 309.635 C 400.52 309.741 404.93 305.825 405.44 300.644 C 405.95 295.463 402.388 290.762 397.262 289.851 L 397.184 289.462 L 397.184 289.462 L 397.184 289.462 C 299.977 271.78 223.099 290.318 192.488 343.362 C 169.588 383.008 176.131 435.507 208.066 491.354 C 209.746 494.611 213.078 496.684 216.743 496.751 C 217.869 496.772 218.971 496.602 220.011 496.268 L 220.011 496.268 C 179.32 549.296 158.575 603.075 165.226 648.226 C 165.944 653.156 170.147 656.719 174.975 656.783 C 162.624 665.605 155.022 679.973 155.022 695.583 C 155.022 721.953 176.399 743.33 202.769 743.33 L 202.769 743.33 L 202.769 743.33 C 222.081 743.33 239.491 731.697 246.882 713.855 C 254.272 696.014 250.187 675.477 236.532 661.821 C 222.876 648.166 202.339 644.081 184.497 651.471 C 184.256 651.571 184.016 651.673 183.778 651.779 L 183.778 651.779 Z  M 841.161 682.965 C 841.35 663.612 829.838 646.059 812.012 638.521 C 794.186 630.983 773.573 634.952 759.821 648.57 C 746.068 662.188 741.897 682.761 749.259 700.66 C 756.621 718.559 774.06 730.244 793.414 730.245 C 806.07 730.265 818.215 725.252 827.171 716.31 C 836.128 707.368 841.161 695.232 841.161 682.576 L 841.161 682.965 L 841.161 682.965 L 841.161 682.965 Z  M 978.56 500 C 978.56 235.699 764.301 21.44 500 21.44 C 235.699 21.44 21.44 235.699 21.44 500 C 21.44 764.301 235.699 978.56 500 978.56 C 764.301 978.56 978.56 764.301 978.56 500 L 978.56 500 L 978.56 500 L 978.56 500 Z  M 498.598 205.028 C 487.344 205.06 477.181 198.305 472.852 187.917 C 468.524 177.528 470.883 165.555 478.83 157.586 C 486.777 149.618 498.743 147.224 509.143 151.524 C 519.544 155.823 526.327 165.967 526.327 177.221 C 526.327 184.575 523.406 191.628 518.205 196.829 C 513.005 202.029 505.952 204.95 498.598 204.95 L 498.598 205.028 L 498.598 205.028 Z  M 505.842 498.598 C 496.897 500.542 487.546 498.851 479.847 493.899 C 472.149 488.947 466.734 481.139 464.793 472.193 C 464.299 469.783 464.039 467.331 464.015 464.871 C 464.018 446.769 478.011 431.747 496.067 430.46 C 514.124 429.173 530.106 442.059 532.676 459.979 C 535.246 477.898 523.532 494.757 505.842 498.598 L 505.842 498.598 L 505.842 498.598 Z " fill-rule="evenodd" fill="rgb(255,255,255)"/></g></svg>