<?xml version="1.0" encoding="UTF-8" standalone="no"?><!-- Generator: Gravit.io --><svg xmlns="http://www.w3.org/2000/svg" xmlns:xlink="http://www.w3.org/1999/xlink" style="isolation:isolate" viewBox="0 0 1000 1000" width="1000pt" height="1000pt"><defs><clipPath id="_clipPath_z9LSA2VNVeAnGj0xYYT93CouymZKqbby"><rect width="1000" height="1000"/></clipPath></defs><g clip-path="url(#_clipPath_z9LSA2VNVeAnGj0xYYT93CouymZKqbby)"><path d=" M 953.371 439.462 L 560.538 46.629 C 544.517 30.517 522.721 21.477 500 21.519 C 477.277 21.47 455.479 30.511 439.462 46.629 L 361.761 124.309 L 457.914 220.463 C 490.511 201.199 532.009 206.409 558.832 233.133 C 585.546 259.94 590.732 301.429 571.439 333.988 L 665.95 428.498 C 701.992 407.296 748.175 416.182 773.776 449.245 C 799.377 482.309 796.418 529.246 766.867 558.832 C 750.508 586.553 719.61 602.33 687.563 599.329 C 655.515 596.327 628.084 575.087 617.156 544.811 C 606.229 514.535 613.77 480.671 636.513 457.894 L 542.023 363.404 C 535.406 367.326 528.26 370.276 520.804 372.162 L 520.804 627.754 C 557.482 637.149 583.155 670.173 583.214 708.035 C 583.214 754.011 545.976 791.249 500 791.249 C 454.024 791.249 416.786 754.011 416.786 708.035 C 416.836 670.165 442.511 637.13 479.196 627.734 L 479.196 372.183 C 464.829 368.613 451.691 361.231 441.168 350.818 C 414.454 324.01 409.268 282.521 428.561 249.963 L 332.344 153.746 L 46.629 439.462 C 30.556 455.508 21.524 477.288 21.524 500 C 21.524 522.712 30.556 544.492 46.629 560.538 L 439.462 953.371 C 455.483 969.483 477.279 978.523 500 978.481 C 522.723 978.53 544.521 969.489 560.538 953.371 L 953.371 560.538 C 969.444 544.492 978.476 522.712 978.476 500 C 978.476 477.288 969.444 455.508 953.371 439.462 Z " fill="rgb(255,255,255)"/></g></svg>