<?xml version="1.0" encoding="UTF-8" standalone="no"?><!-- Generator: Gravit.io --><svg xmlns="http://www.w3.org/2000/svg" xmlns:xlink="http://www.w3.org/1999/xlink" style="isolation:isolate" viewBox="0 0 1000 1000" width="1000pt" height="1000pt"><defs><clipPath id="_clipPath_FY3kP8Vq5a8k0u7RahIrfKKwVPn7GlCD"><rect width="1000" height="1000"/></clipPath></defs><g clip-path="url(#_clipPath_FY3kP8Vq5a8k0u7RahIrfKKwVPn7GlCD)"><path d=" M 499.959 23.765 C 230.347 23.765 11.72 242.392 11.72 512.085 C 11.72 727.783 151.612 910.807 345.663 975.382 C 370.077 979.858 378.988 964.802 378.988 951.863 C 378.988 940.266 378.581 909.545 378.337 868.815 C 242.514 898.315 213.868 803.344 213.868 803.344 C 191.651 746.948 159.669 731.933 159.669 731.933 C 115.317 701.619 163.005 702.27 163.005 702.27 C 211.996 705.729 237.794 752.604 237.794 752.604 C 281.332 827.229 352.092 805.664 379.883 793.172 C 384.318 761.637 396.932 740.112 410.889 727.905 C 302.45 715.576 188.477 673.706 188.477 486.573 C 188.477 433.269 207.52 389.69 238.729 355.551 C 233.725 343.181 216.96 293.539 243.531 226.319 C 243.531 226.319 284.546 213.177 377.808 276.368 C 417.65 265.527 458.75 260 500.041 259.929 C 541.504 260.133 583.292 265.545 622.273 276.368 C 715.494 213.177 756.428 226.319 756.428 226.319 C 783.08 293.539 766.316 343.181 761.271 355.551 C 792.561 389.69 811.441 433.269 811.441 486.573 C 811.441 674.154 697.265 715.413 588.501 727.498 C 606.038 742.554 621.663 772.379 621.663 817.911 C 621.663 883.178 621.053 935.831 621.053 951.863 C 621.053 964.924 629.842 980.102 654.622 975.341 C 848.51 910.603 988.28 727.742 988.28 512.085 C 988.28 242.392 769.653 23.765 499.959 23.765 Z " fill-rule="evenodd" fill="rgb(255,255,255)"/></g></svg>