<?xml version="1.0" encoding="UTF-8" standalone="no"?><!-- Generator: Gravit.io --><svg xmlns="http://www.w3.org/2000/svg" xmlns:xlink="http://www.w3.org/1999/xlink" style="isolation:isolate" viewBox="0 0 1000 1000" width="1000pt" height="1000pt"><defs><clipPath id="_clipPath_hH1bFX38rKbw0vTv6dNMBcdxHnHvACRb"><rect width="1000" height="1000"/></clipPath></defs><g clip-path="url(#_clipPath_hH1bFX38rKbw0vTv6dNMBcdxHnHvACRb)"><g><path d=" M 36.28 36.28 L 963.72 36.28 L 963.72 963.72 L 36.28 963.72 L 36.28 36.28 L 36.28 36.28 L 36.28 36.28 Z  M 280.141 811.335 L 351.087 768.39 C 364.748 792.693 377.202 813.222 407.09 813.222 C 435.695 813.222 453.809 802.052 453.809 758.427 L 453.809 462.036 L 540.983 462.036 L 540.983 759.635 C 540.983 849.903 488.075 890.962 410.864 890.962 C 341.125 890.962 300.67 854.885 280.141 811.335 L 280.141 811.335 L 280.141 811.335 L 280.141 811.335 L 280.141 811.335 Z  M 588.306 801.977 L 659.253 760.918 C 677.971 791.41 702.198 813.826 745.144 813.826 C 781.221 813.826 804.316 795.788 804.316 770.881 C 804.316 740.993 780.692 730.426 740.842 712.991 L 719.029 703.632 C 656.158 676.839 614.42 643.252 614.42 572.305 C 614.42 506.944 664.234 457.13 742.049 457.13 C 797.448 457.13 837.299 476.452 865.904 526.869 L 798.052 570.418 C 783.108 543.625 766.956 533.058 742.049 533.058 C 716.539 533.058 700.311 549.21 700.311 570.418 C 700.311 596.533 716.463 607.175 753.823 623.327 L 775.636 632.686 C 849.752 664.461 891.415 696.839 891.415 769.673 C 891.415 848.092 829.751 891.037 746.955 891.037 C 666.121 891.037 613.817 852.394 588.306 801.977 L 588.306 801.977 L 588.306 801.977 L 588.306 801.977 L 588.306 801.977 Z  M 588.306 801.977 L 588.306 801.977 L 588.306 801.977 L 588.306 801.977 L 588.306 801.977 L 588.306 801.977 Z " fill-rule="evenodd" fill="rgb(247,222,31)"/></g></g></svg>