<?xml version="1.0" encoding="UTF-8" standalone="no"?><!-- Generator: Gravit.io --><svg xmlns="http://www.w3.org/2000/svg" xmlns:xlink="http://www.w3.org/1999/xlink" style="isolation:isolate" viewBox="0 0 1000 1000" width="1000pt" height="1000pt"><defs><clipPath id="_clipPath_KdLzh03KWK92lObBeSCem7IpnAk1gVAt"><rect width="1000" height="1000"/></clipPath></defs><g clip-path="url(#_clipPath_KdLzh03KWK92lObBeSCem7IpnAk1gVAt)"><g><path d=" M 491.717 521.159 C 468.247 483.244 451.234 451.762 427.575 392.568 C 387.61 292.632 670.57 202.31 555.859 28.712 C 605.58 148.654 377.289 222.74 356.128 322.629 C 336.688 414.483 491.623 521.159 491.694 521.159 L 491.717 521.159 Z " fill="rgb(244,67,54)"/><path d=" M 497.161 341.41 C 492.636 400.674 549.615 432.345 551.288 475.609 C 552.654 510.861 517.214 540.222 517.214 540.222 C 517.214 540.222 581.474 527.615 601.55 473.865 C 623.819 414.106 558.381 373.246 565.096 325.481 C 571.341 279.719 707.213 194.864 707.213 194.864 C 707.213 194.864 507.387 208.013 497.161 341.41 Z " fill="rgb(244,67,54)"/><path d=" M 690.553 524.858 C 731.884 515.55 766.665 541.872 766.665 572.246 C 766.665 640.559 671.937 705.172 671.937 705.172 C 671.937 705.172 818.601 687.687 818.601 575.474 C 818.601 501.294 746.612 482.702 690.553 524.858 Z  M 620.873 579.999 C 620.873 579.999 666.611 547.409 678.77 535.156 C 566.557 559.003 310.296 562.231 310.296 541.518 C 310.296 522.455 392.959 502.943 392.959 502.943 C 392.959 502.943 209.794 500.281 209.794 554.314 C 209.794 610.632 449.561 614.685 620.873 579.999 Z " fill="rgb(21,101,192)"/><path d=" M 592.714 631.251 C 486.486 666.597 290.784 655.287 348.776 607.875 C 320.499 607.875 278.625 630.52 278.625 652.412 C 278.625 696.147 490.35 729.938 647.006 665.867 L 592.714 631.251 Z " fill="rgb(21,101,192)"/><path d=" M 374.838 705.903 C 336.264 705.903 311.309 730.763 311.309 748.907 C 311.309 805.226 541.249 810.834 632.372 753.691 L 574.475 715.21 C 506.374 745.137 335.439 749.261 374.815 705.903 L 374.838 705.903 Z " fill="rgb(21,101,192)"/><path d=" M 789.405 797.686 C 789.405 775.582 764.568 765.167 755.637 760.218 C 808.091 886.876 229.729 877.026 229.729 802.281 C 229.729 785.244 272.357 768.678 311.662 776.501 L 278.248 756.707 C 199.826 744.477 146.524 778.905 146.524 806.711 C 146.524 936.408 789.381 930.14 789.381 797.686 L 789.405 797.686 Z " fill="rgb(21,101,192)"/><path d=" M 853.476 844.154 C 755.802 940.626 508.024 975.784 258.949 916.143 C 508.024 1022.277 852.298 962.565 853.476 844.154 Z " fill="rgb(21,101,192)"/></g></g></svg>