<?xml version="1.0" encoding="UTF-8" standalone="no"?><!-- Generator: Gravit.io --><svg xmlns="http://www.w3.org/2000/svg" xmlns:xlink="http://www.w3.org/1999/xlink" style="isolation:isolate" viewBox="0 0 1000 1000" width="1000pt" height="1000pt"><defs><clipPath id="_clipPath_TXvckyReDJs8kbXaPijVfDVZHr4KmIBM"><rect width="1000" height="1000"/></clipPath></defs><g clip-path="url(#_clipPath_TXvckyReDJs8kbXaPijVfDVZHr4KmIBM)"><g><path d=" M 388.273 297.383 L 390.771 356.6 L 349.653 433.841 L 285.287 559.948 L 272.413 665.561 L 318.654 814.892 L 424.267 874.161 L 583.897 874.161 L 733.228 760.798 L 800.221 583.197 L 645.74 395.22 L 601.868 289.607 L 388.273 297.383 Z " fill="rgb(236,239,241)"/><path d=" M 753.825 444.088 C 712.63 384.973 679.108 348.851 661.137 274.237 C 643.114 199.494 666.235 220.117 650.838 155.75 C 644.887 128.857 633.497 103.465 617.368 81.136 C 601.868 63.114 583.897 52.764 573.598 50.24 C 550.375 37.367 496.358 16.77 429.417 52.764 C 359.9 88.886 367.624 166.126 380.498 323.104 C 380.498 333.48 377.923 346.353 372.774 356.6 C 362.527 379.721 344.401 400.37 329.004 418.341 C 311.033 444.088 292.908 469.834 280.034 498.207 C 249.164 557.425 220.92 632.09 228.541 660.412 C 241.414 657.837 403.644 905.005 403.644 910.155 C 414.02 907.528 457.764 907.528 496.384 907.528 C 550.375 905.031 581.348 902.405 625.117 912.781 C 625.117 905.031 622.491 897.281 622.491 889.531 C 622.491 874.161 625.117 861.287 627.64 843.187 C 630.241 830.314 632.867 817.441 635.364 802.044 C 609.618 825.165 563.274 850.911 519.504 858.661 C 480.884 866.385 416.517 853.512 385.647 814.892 C 388.273 814.892 393.371 814.892 395.894 812.317 C 403.644 809.794 411.394 807.168 414.02 802.018 C 421.641 789.145 416.517 776.272 411.394 768.548 C 406.245 760.824 367.624 732.554 349.653 717.054 C 331.528 701.555 321.28 693.934 311.033 683.584 C 311.033 683.584 295.534 668.187 290.41 662.935 C 285.261 657.811 282.66 652.688 280.034 650.061 C 274.911 637.188 272.413 621.817 274.911 601.194 C 277.537 572.821 287.784 549.701 300.657 523.954 C 305.807 513.707 318.68 493.058 318.68 493.058 C 318.68 493.058 274.911 601.194 298.16 634.665 C 298.16 634.665 300.657 601.194 311.033 567.723 C 318.654 544.551 331.528 511.081 347.027 493.058 C 362.527 475.087 401.147 408.094 403.67 366.848 C 403.67 348.851 406.245 330.854 406.245 317.98 C 395.894 307.733 576.121 281.986 586.471 310.256 C 588.995 320.606 625.092 413.243 645.74 462.213 C 655.988 485.334 668.861 505.931 676.585 531.678 C 684.309 559.922 689.458 598.542 689.458 637.162 C 689.458 644.912 689.458 657.785 686.832 670.659 C 691.981 670.659 792.445 562.548 673.959 472.435 C 673.959 472.435 746.075 505.906 748.701 572.795 C 751.199 626.915 728.078 670.659 722.955 678.408 C 725.452 678.408 776.946 701.529 779.572 701.529 C 789.819 701.529 810.442 693.908 810.442 693.908 C 813.068 686.158 820.689 665.535 820.689 657.785 C 838.815 598.568 794.943 503.305 753.825 444.088 Z " fill="rgb(38,50,56)"/><path d=" M 460.261 222.718 C 460.261 194.267 445.277 171.224 426.893 171.224 C 408.356 171.224 393.397 194.267 393.397 222.718 C 393.397 251.193 408.382 274.211 426.868 274.211 C 445.277 274.211 460.261 251.193 460.261 222.718 Z  M 586.471 220.143 C 586.471 187.445 566.904 160.874 542.754 160.874 C 518.5 160.874 498.881 187.445 498.881 220.117 C 498.881 252.815 518.5 279.36 542.754 279.36 C 566.878 279.36 586.497 252.815 586.497 220.143 L 586.471 220.143 Z " fill="rgb(236,239,241)"/><path d=" M 423.752 197.898 C 413.917 199.108 407.661 213.783 409.772 230.776 C 411.909 247.692 421.641 260.359 431.502 259.149 C 441.363 257.939 447.722 243.16 445.586 226.271 C 443.371 209.355 433.613 196.585 423.752 197.898 Z  M 565.874 230.493 C 565.874 211.955 554.288 196.997 540.127 196.997 C 525.967 196.997 514.381 211.981 514.381 230.467 C 514.381 248.876 525.967 263.861 540.127 263.861 C 554.288 263.861 565.874 248.876 565.874 230.493 Z " fill="rgb(33,33,33)"/><path d=" M 882.559 796.921 C 872.208 791.668 854.237 784.047 838.841 760.798 C 831.091 747.925 833.588 711.931 820.715 696.431 C 813.094 686.184 802.718 691.308 800.221 691.308 C 776.971 696.457 722.981 732.554 686.858 691.308 C 681.734 686.158 673.985 678.434 661.111 678.434 C 648.238 678.434 643.114 683.584 637.991 693.934 C 632.841 704.181 632.841 711.931 632.841 737.677 C 632.841 758.275 632.841 781.421 630.241 799.418 C 625.092 843.187 617.368 868.934 617.368 894.681 C 617.368 923.028 625.092 941.025 635.39 948.775 C 643.114 956.499 655.988 961.648 684.36 961.648 C 712.605 961.648 730.602 951.401 748.727 933.275 C 761.601 920.402 771.848 915.278 807.842 889.531 C 836.215 871.534 879.984 848.414 887.708 840.664 C 892.857 835.515 900.581 832.914 900.581 817.415 C 900.581 804.542 890.334 799.418 882.559 796.921 Z  M 365.05 804.542 C 339.303 763.424 336.754 755.674 318.628 729.928 C 303.258 704.181 269.761 655.314 249.138 655.314 C 233.767 655.314 226.018 662.935 215.667 673.311 C 205.394 683.558 195.147 706.781 177.047 719.655 C 161.651 732.528 117.907 729.928 107.531 745.401 C 97.284 760.798 117.907 784.021 117.907 822.642 C 117.907 838.038 105.034 848.388 102.408 858.661 C 99.782 871.534 97.258 879.259 102.408 889.557 C 112.655 905.005 125.528 910.155 213.119 928.177 C 259.514 938.527 303.232 964.274 331.502 966.797 C 359.875 969.372 408.742 966.797 408.742 897.281 C 411.368 856.035 388.248 845.788 364.998 804.542 L 365.05 804.542 Z  M 414.02 338.578 C 398.521 328.253 385.647 317.98 385.647 302.507 C 385.647 287.136 395.894 282.012 411.394 269.139 C 414.02 266.487 442.29 240.74 470.611 240.74 C 498.881 240.74 532.403 258.763 545.277 263.861 C 568.5 269.113 591.621 274.237 588.995 292.234 C 586.497 317.98 583.871 323.13 558.124 336.003 C 540.127 341.101 506.631 369.474 483.51 369.474 C 473.134 369.474 457.764 369.474 447.388 366.848 C 439.767 364.35 426.893 351.477 414.02 338.603 L 414.02 338.578 Z " fill="rgb(255,193,7)"/><path d=" M 408.768 317.98 C 414.02 323.13 421.641 328.228 429.391 330.854 C 434.54 333.48 442.264 336.003 442.264 336.003 L 465.513 336.003 C 478.387 336.003 496.384 330.854 514.381 320.606 C 532.403 312.857 534.978 307.733 547.851 302.481 C 560.725 294.86 573.598 287.11 568.5 284.484 C 563.248 281.986 558.124 284.484 540.127 294.86 C 524.628 305.107 511.755 310.231 496.358 317.98 C 488.634 320.606 478.387 325.704 470.611 325.704 L 447.388 325.704 C 439.767 325.704 434.514 323.13 426.893 320.606 C 421.641 317.98 419.144 315.354 416.517 315.354 C 411.394 312.857 401.147 302.481 395.92 299.983 C 395.92 299.983 390.771 299.983 393.397 302.481 C 401.121 310.231 403.644 312.857 408.768 317.98 Z  M 486.008 261.338 C 488.634 266.487 493.758 266.487 496.384 269.113 C 498.881 271.611 501.507 271.611 501.507 271.611 C 504.134 269.113 501.507 263.887 498.881 263.887 C 498.881 258.737 486.008 258.737 486.008 261.363 L 486.008 261.338 Z  M 444.865 266.487 C 444.865 269.113 450.014 271.636 450.014 269.113 C 452.64 266.487 455.163 263.861 457.738 263.861 C 462.887 261.363 460.261 258.737 452.64 258.737 C 447.388 261.363 447.388 263.887 444.89 266.487 L 444.865 266.487 Z " fill="rgb(99,71,3)"/><path d=" M 694.608 722.204 L 694.608 729.928 C 699.757 740.175 712.63 742.801 722.981 742.801 C 738.351 742.801 753.851 732.554 761.601 722.204 C 761.601 719.68 764.098 717.054 766.724 714.428 C 771.848 706.807 774.448 701.555 776.971 699.057 C 776.971 699.057 774.474 696.431 774.474 693.908 C 771.848 688.681 764.098 683.558 753.851 681.035 C 746.101 678.434 733.228 675.808 728.104 675.808 C 704.855 673.311 691.981 681.06 684.335 688.681 C 684.335 688.681 686.858 688.681 686.858 691.308 C 692.007 696.457 694.608 701.555 694.608 709.33 C 697.234 714.428 694.608 717.054 694.608 722.204 Z " fill="rgb(69,90,100)"/></g></g></svg>