<?xml version="1.0" encoding="UTF-8" standalone="no"?><!-- Generator: Gravit.io --><svg xmlns="http://www.w3.org/2000/svg" xmlns:xlink="http://www.w3.org/1999/xlink" style="isolation:isolate" viewBox="0 0 32 32" width="32pt" height="32pt"><defs><clipPath id="_clipPath_RMXAeVkS6R2srJc3Z3PEbF4XL6Dox9bn"><rect width="32" height="32"/></clipPath></defs><g clip-path="url(#_clipPath_RMXAeVkS6R2srJc3Z3PEbF4XL6Dox9bn)"><circle vector-effect="non-scaling-stroke" cx="16.23656430296711" cy="16" r="15" fill="rgb(255,255,255)"/><linearGradient id="_lgradient_0" x1="-0.7264474153307936" y1="0.4383948448072644" x2="1.468238482565095" y2="1.1792948442749083" gradientTransform="matrix(3.349,0,0,21.958,14.696,6.6)" gradientUnits="userSpaceOnUse"><stop offset="23.1%" stop-opacity="1" style="stop-color:rgb(153,152,117)"/><stop offset="56.3%" stop-opacity="1" style="stop-color:rgb(155,153,119)"/><stop offset="68.30000000000001%" stop-opacity="1" style="stop-color:rgb(160,159,126)"/><stop offset="76.8%" stop-opacity="1" style="stop-color:rgb(169,168,137)"/><stop offset="83.7%" stop-opacity="1" style="stop-color:rgb(183,182,154)"/><stop offset="89.60000000000001%" stop-opacity="1" style="stop-color:rgb(201,199,176)"/><stop offset="94.8%" stop-opacity="1" style="stop-color:rgb(222,221,203)"/><stop offset="99.4%" stop-opacity="1" style="stop-color:rgb(248,246,235)"/><stop offset="100%" stop-opacity="1" style="stop-color:rgb(251,249,239)"/></linearGradient><path d=" M 16.792 28.558 L 16.118 28.335 C 16.118 28.335 16.208 24.926 14.974 24.687 C 14.167 23.747 15.094 -15.446 18.045 24.553 C 17.485 24.837 17.056 25.326 16.849 25.919 C 16.738 26.794 16.719 27.679 16.792 28.558 L 16.792 28.558 Z " fill="url(#_lgradient_0)"/><linearGradient id="_lgradient_1" x1="-0.17721337660508318" y1="-0.0053229716358879076" x2="0.1596664436501417" y2="1.3022066950605158" gradientTransform="matrix(5.76,0,0,21.758,16.123,3.507)" gradientUnits="userSpaceOnUse"><stop offset="0%" stop-opacity="1" style="stop-color:rgb(72,165,71)"/><stop offset="100%" stop-opacity="1" style="stop-color:rgb(63,145,67)"/></linearGradient><path d=" M 17.156 25.265 C 20.817 22.509 22.563 17.891 21.641 13.402 C 20.322 7.585 17.2 5.673 16.864 4.943 C 16.573 4.488 16.326 4.008 16.123 3.507 L 16.372 19.715 C 16.372 19.715 15.857 24.669 17.156 25.265 Z " fill="url(#_lgradient_1)"/><linearGradient id="_lgradient_2" x1="-0.07835205049341565" y1="0.5598527819610052" x2="1.5047569001163663" y2="0.2002274414511387" gradientTransform="matrix(5.859,0,0,22.038,10.589,3.442)" gradientUnits="userSpaceOnUse"><stop offset="0%" stop-opacity="1" style="stop-color:rgb(65,162,71)"/><stop offset="35.199999999999996%" stop-opacity="1" style="stop-color:rgb(75,167,75)"/><stop offset="95.6%" stop-opacity="1" style="stop-color:rgb(103,181,84)"/><stop offset="100%" stop-opacity="1" style="stop-color:rgb(105,182,85)"/></linearGradient><path d=" M 15.775 25.48 C 15.775 25.48 10.285 21.741 10.602 15.125 C 10.662 11.09 12.468 7.279 15.553 4.677 C 15.914 4.37 16.115 3.915 16.097 3.442 C 16.439 4.178 16.384 14.424 16.419 15.622 C 16.559 20.284 16.16 24.6 15.775 25.48 Z " fill="url(#_lgradient_2)"/></g></svg>