<?xml version="1.0" encoding="UTF-8" standalone="no"?><!-- Generator: Gravit.io --><svg xmlns="http://www.w3.org/2000/svg" xmlns:xlink="http://www.w3.org/1999/xlink" style="isolation:isolate" viewBox="0 0 1478.201 1478.201" width="1478.201pt" height="1478.201pt"><defs><clipPath id="_clipPath_taYZIVlCwG1LbbiWTaJFajv6f5BHs8Rg"><rect width="1478.201" height="1478.201"/></clipPath></defs><g clip-path="url(#_clipPath_taYZIVlCwG1LbbiWTaJFajv6f5BHs8Rg)"><g><linearGradient id="_lgradient_5" x1="0.25895107085744573" y1="0.8144670749197946" x2="0.3834117159927556" y2="0.7409252638924447" gradientTransform="matrix(756.399,0,0,693.136,145.222,695.982)" gradientUnits="userSpaceOnUse"><stop offset="0%" stop-opacity="1" style="stop-color:rgb(144,156,169)"/><stop offset="100%" stop-opacity="1" style="stop-color:rgb(237,237,238)"/></linearGradient><path d=" M 895.133 695.982 L 634.784 780.995 L 408.284 880.961 L 344.918 897.69 C 328.78 913.041 311.858 928.588 293.557 944.331 C 273.485 961.647 254.79 977.392 240.422 988.803 C 224.484 1001.399 200.869 1025.013 188.866 1039.966 C 170.958 1062.399 156.79 1086.21 150.689 1104.513 C 139.865 1137.574 145.18 1171.027 166.039 1201.925 C 192.802 1241.28 246.132 1281.423 308.315 1308.777 C 339.999 1322.751 393.328 1340.657 433.471 1350.692 C 500.18 1367.617 629.273 1385.918 700.312 1388.675 C 714.675 1389.265 733.962 1389.265 734.747 1388.675 C 736.323 1387.688 747.343 1366.634 760.136 1340.463 C 803.823 1251.317 835.308 1167.682 852.427 1096.25 C 862.66 1052.959 870.727 995.299 876.038 927.017 C 877.419 907.927 878.007 843.972 876.826 822.323 C 875.054 786.903 871.905 758.174 866.989 730.033 C 866.202 725.899 866.002 722.159 866.398 721.963 C 867.183 721.374 869.544 720.587 901.621 711.335 L 895.13 695.988 L 895.13 695.984 L 895.133 695.984 L 895.133 695.982 Z  M 835.704 730.816 C 838.065 730.816 844.36 791.228 845.934 829.407 C 846.329 837.474 846.13 842.788 845.738 842.788 C 844.165 842.788 812.48 824.095 789.854 809.927 C 770.174 797.528 732.786 772.732 726.883 768.01 C 724.911 766.633 725.107 766.437 741.246 760.925 C 768.597 751.674 833.54 730.816 835.704 730.816 L 835.704 730.816 Z  M 703.069 774.503 C 704.842 774.503 709.364 777.059 720.188 783.751 C 760.725 809.136 815.828 839.836 839.442 850.071 C 846.721 853.219 847.506 852.036 830.783 863.452 C 794.967 887.853 750.294 911.859 695.587 936.065 C 685.947 940.394 677.879 943.738 677.683 943.738 C 677.291 943.738 678.468 938.822 680.041 932.917 C 693.226 883.913 700.705 834.325 701.101 794.574 C 701.297 774.894 701.297 774.894 703.069 774.306 C 702.674 774.503 702.87 774.503 703.069 774.503 L 703.069 774.503 Z  M 675.717 784.932 C 676.894 786.111 676.109 830.193 674.534 842.196 C 670.992 870.928 665.482 897.689 656.433 927.801 C 654.267 935.077 652.296 941.181 651.907 941.573 C 651.116 942.556 624.156 916.187 615.301 905.955 C 599.951 888.243 587.95 870.532 579.094 853.216 C 574.567 844.36 567.485 827.045 568.074 826.453 C 571.222 824.289 674.929 784.146 675.717 784.932 Z  M 547.016 835.505 C 547.212 835.505 547.408 835.505 547.608 835.701 C 548 836.095 549.38 839.245 550.561 842.786 C 556.856 859.907 571.022 885.095 583.226 901.232 C 596.608 918.944 614.123 937.833 628.682 950.231 C 633.407 954.167 637.733 957.905 638.322 958.496 C 639.506 959.678 639.899 959.479 607.821 971.682 C 570.633 985.85 530.092 1000.018 483.649 1014.973 C 472.555 1018.549 461.471 1022.157 450.398 1025.797 C 448.623 1026.388 449.215 1025.403 454.331 1017.336 C 477.354 981.323 512.381 910.678 532.061 860.693 C 535.407 852.034 538.752 843.377 539.344 841.409 C 540.131 838.652 541.113 837.669 543.67 836.291 C 545.048 835.901 546.427 835.505 547.016 835.505 L 547.016 835.505 Z  M 507.663 851.838 C 508.251 852.234 498.215 873.288 488.375 892.573 C 469.286 929.765 448.427 966.37 420.484 1010.843 C 415.762 1018.516 411.237 1025.602 410.646 1026.389 C 409.663 1027.768 409.267 1027.372 406.119 1021.273 C 399.429 1008.088 393.917 991.163 390.966 975.616 C 388.013 960.266 388.604 933.505 391.951 916.976 C 394.506 904.776 394.312 904.973 400.215 902.02 C 425.404 889.229 506.875 851.052 507.663 851.838 L 507.663 851.838 Z  M 847.117 865.615 L 847.117 873.88 C 847.117 917.763 842.395 977.979 835.504 1021.865 C 834.324 1029.538 833.336 1035.833 833.143 1036.033 C 833.143 1036.033 827.437 1034.46 820.746 1032.489 C 791.23 1023.239 759.153 1009.661 730.224 993.725 C 711.133 983.294 683.388 966.171 684.177 965.384 C 684.37 965.189 692.637 960.859 702.278 955.742 C 740.853 935.671 777.845 914.025 809.922 892.575 C 821.927 884.506 840.028 871.52 843.968 867.977 L 847.117 865.615 Z  M 359.086 923.86 C 359.873 923.86 359.676 925.435 358.495 932.519 C 357.707 937.637 356.725 947.083 356.333 953.574 C 354.755 982.306 359.481 1003.56 373.65 1032.683 C 377.585 1040.752 380.736 1047.443 380.536 1047.638 C 379.158 1048.821 248.888 1086.999 207.954 1098.214 C 195.754 1101.558 185.129 1104.511 184.338 1104.705 C 182.963 1105.101 182.765 1104.905 183.355 1101.556 C 187.881 1072.631 209.922 1034.848 240.619 1002.967 C 261.086 981.715 277.42 969.319 305.364 953.376 C 325.436 941.965 356.331 924.847 358.692 924.057 C 358.694 923.86 358.89 923.86 359.086 923.86 L 359.086 923.86 Z  M 666.073 978.764 C 666.269 978.568 670.992 981.128 676.698 984.472 C 718.811 1008.874 777.453 1031.505 827.433 1043.115 L 831.962 1044.1 L 825.664 1047.638 C 799.493 1062.202 713.497 1098.016 625.535 1130.881 C 612.742 1135.601 600.149 1140.327 597.785 1141.309 C 595.423 1142.292 593.258 1142.884 593.258 1142.688 C 593.258 1142.488 596.803 1135.601 601.325 1127.141 C 625.924 1081.093 650.721 1025.01 663.315 986.046 C 664.893 982.307 665.874 978.963 666.073 978.764 L 666.073 978.764 Z  M 634.784 988.998 C 634.984 989.199 633.408 993.328 631.438 998.05 C 614.319 1039.572 591.883 1084.836 563.153 1135.605 C 555.874 1148.594 549.772 1159.025 549.572 1159.025 C 549.379 1159.025 543.473 1155.48 536.39 1151.152 C 494.669 1125.569 457.674 1094.084 433.472 1063.581 L 429.928 1059.252 L 447.834 1054.332 C 511.987 1036.82 566.495 1017.928 620.613 994.708 C 628.29 991.558 634.588 988.998 634.784 988.998 L 634.784 988.998 Z  M 829.209 1056.89 C 829.209 1056.89 829.406 1057.087 829.209 1056.89 C 829.405 1061.416 819.369 1101.955 811.103 1131.273 C 804.216 1155.871 798.309 1175.158 787.489 1209.2 C 782.767 1224.159 778.637 1236.553 778.437 1236.553 C 778.241 1236.553 777.061 1236.357 775.88 1235.966 C 717.435 1225.336 665.09 1210.578 615.893 1190.901 C 602.116 1185.389 582.439 1176.533 581.258 1175.55 C 580.866 1175.153 592.674 1169.646 607.629 1163.152 C 697.166 1123.991 790.049 1079.517 821.927 1060.432 C 825.665 1058.069 828.618 1056.89 829.209 1056.89 L 829.209 1056.89 Z  M 380.34 1072.24 C 380.734 1072.632 355.742 1108.646 320.712 1157.644 C 308.512 1174.765 294.344 1194.837 289.032 1202.314 C 283.718 1209.792 275.651 1221.6 271.124 1228.685 L 262.856 1241.476 L 254 1233.999 C 243.569 1225.338 225.468 1206.841 217.399 1196.608 C 200.474 1175.554 189.063 1153.317 184.537 1133.05 C 182.372 1123.602 182.372 1118.877 184.337 1118.29 C 187.288 1117.503 239.831 1105.105 289.03 1093.689 C 316.384 1087.394 348.064 1079.916 359.478 1077.161 C 370.893 1074.402 380.144 1072.24 380.34 1072.24 L 380.34 1072.24 Z  M 405.528 1081.883 L 411.823 1088.966 C 440.163 1120.649 469.09 1144.071 504.118 1164.532 C 510.417 1168.077 515.138 1171.223 514.742 1171.423 C 513.369 1172.406 393.129 1215.105 337.439 1234.391 C 306.152 1245.41 280.371 1254.265 280.177 1254.265 C 279.981 1254.265 278.209 1253.086 276.238 1251.708 L 272.698 1249.149 L 278.404 1240.885 C 296.901 1214.122 320.125 1184.802 370.699 1123.798 L 405.528 1081.883 Z  M 562.565 1194.246 C 562.759 1194.051 571.418 1197.197 582.043 1201.137 C 607.629 1210.778 627.894 1216.877 655.053 1223.765 C 688.507 1232.228 736.916 1240.493 765.451 1242.854 C 769.781 1243.246 772.142 1243.641 771.354 1244.232 C 769.974 1245.02 741.05 1254.662 719.796 1261.353 C 685.947 1271.977 582.636 1302.479 498.412 1326.685 C 482.865 1331.211 469.483 1334.95 468.696 1335.145 C 466.731 1335.541 460.234 1333.767 460.234 1332.98 C 460.234 1332.589 464.957 1326.489 470.665 1319.798 C 499 1285.95 527.143 1248.168 550.561 1212.352 C 557.053 1202.51 562.565 1194.443 562.565 1194.246 Z  M 527.928 1195.232 C 528.124 1195.428 514.154 1217.86 489.755 1256.43 C 479.323 1272.763 467.712 1291.261 463.578 1297.756 C 459.643 1304.052 453.74 1313.894 450.396 1319.402 L 444.688 1329.439 L 441.737 1328.652 C 434.65 1326.683 384.865 1309.168 371.679 1303.855 C 355.345 1297.361 338.422 1289.491 325.827 1282.801 C 310.086 1274.338 290.409 1261.742 291.981 1261.351 C 292.374 1261.155 319.335 1253.871 351.803 1245.018 C 437.996 1221.597 485.814 1208.021 517.105 1198.182 C 522.813 1196.411 527.732 1195.033 527.928 1195.232 Z  M 772.927 1252.69 L 773.123 1252.69 C 773.911 1254.66 742.034 1343.214 730.418 1371.156 C 727.864 1377.453 726.883 1379.03 725.503 1378.829 C 722.157 1378.636 675.914 1372.141 647.77 1368.008 C 598.773 1360.531 516.515 1346.163 495.854 1341.442 L 491.131 1340.459 L 520.449 1333.764 C 583.422 1319.596 613.727 1311.923 644.424 1302.477 C 683.192 1290.67 721.568 1275.91 760.332 1257.808 C 766.432 1255.052 771.55 1252.887 772.927 1252.69 Z " fill="url(#_lgradient_5)"/><linearGradient id="_lgradient_6" x1="0.0016794772742325659" y1="0.4984570517243385" x2="0.18594484316019533" y2="0.4984570517243385" gradientTransform="matrix(411.086,0,0,246.192,342.557,89.083)" gradientUnits="userSpaceOnUse"><stop offset="0%" stop-opacity="1" style="stop-color:rgb(147,159,171)"/><stop offset="100%" stop-opacity="1" style="stop-color:rgb(220,222,225)"/></linearGradient><path d=" M 626.717 89.093 C 622.388 88.506 552.526 113.695 507.464 131.993 C 446.655 156.791 399.429 180.407 370.304 200.868 C 359.482 208.546 345.901 222.123 343.74 227.435 C 342.953 229.403 342.557 231.764 342.557 234.126 L 368.928 259.118 L 431.701 279.19 L 581.063 305.953 L 751.871 335.275 L 753.644 320.516 C 753.055 320.516 752.659 320.32 752.074 320.32 L 729.634 316.777 L 725.111 308.709 C 701.89 267.777 676.308 217.006 661.353 182.765 C 649.744 156.198 638.723 125.502 632.621 103.461 C 629.275 90.08 628.883 89.293 626.722 89.097 L 626.722 89.093 L 626.717 89.093 L 626.717 89.093 Z  M 623.564 99.133 L 623.767 99.133 C 623.96 99.327 624.748 104.84 625.536 111.331 C 628.879 138.885 634.984 165.447 644.625 194.179 C 651.904 215.826 651.904 214.646 643.444 212.086 C 623.372 206.578 533.441 191.031 468.305 181.98 C 457.875 180.601 449.019 179.225 449.019 179.029 C 448.232 178.242 496.05 153.248 517.106 143.411 C 544.066 131.011 618.057 100.115 623.564 99.133 L 623.564 99.133 Z  M 433.864 187.292 L 441.542 189.847 C 483.257 204.018 588.142 224.091 646 228.813 C 652.492 229.404 658.005 229.996 658.198 229.996 C 658.394 230.192 652.888 233.144 645.802 236.488 C 617.861 250.46 587.161 267.581 565.908 280.766 C 559.613 284.7 553.903 287.851 553.118 287.851 C 552.33 287.851 548.199 287.063 543.87 286.472 L 535.999 285.29 L 516.322 266.004 C 481.688 232.355 454.53 206.38 444.1 196.539 L 433.864 187.292 L 433.864 187.292 Z  M 425.995 193.391 L 453.742 228.027 C 468.892 247.115 484.242 265.809 487.591 269.939 C 490.933 274.075 493.69 277.421 493.494 277.617 C 492.706 278.207 453.351 270.531 432.489 265.81 C 411.039 260.889 402.184 258.528 389 254.397 L 378.176 250.854 L 378.176 248.097 C 378.372 234.911 395.101 215.234 423.437 195.164 L 425.995 193.391 Z  M 661.744 240.62 C 662.532 240.62 663.513 242.391 665.875 247.704 C 672.565 262.462 693.429 302.215 698.54 309.888 C 700.119 312.449 702.87 312.645 675.126 308.119 C 608.417 297.293 586.965 293.754 586.965 293.361 C 586.965 293.165 588.933 291.786 591.491 290.408 C 612.155 278.997 633.013 264.433 651.512 248.886 C 656.039 245.147 660.171 241.605 660.956 241.013 C 661.152 240.62 661.548 240.424 661.744 240.62 Z " fill="url(#_lgradient_6)"/><radialGradient id="_rgradient_1" fx="0.4434619879540608" fy="0.4388087377589124" cx="0.4434619879540608" cy="0.4388087377589124" r="1" gradientTransform="matrix(1091.573,0,0,762.354,241.406,224.68)" gradientUnits="userSpaceOnUse"><stop offset="0%" stop-opacity="1" style="stop-color:rgb(238,53,44)"/><stop offset="100%" stop-opacity="1" style="stop-color:rgb(169,29,34)"/></radialGradient><path d=" M 345.113 224.68 C 345.113 224.68 340.786 231.57 344.918 241.804 C 347.479 248.099 354.955 255.772 363.415 263.645 C 363.415 263.645 450.985 349.049 461.612 361.252 C 510.019 417.138 531.077 472.238 533.045 548.199 C 534.226 597.001 524.974 639.901 501.952 689.688 C 461.02 779.03 374.63 877.62 241.406 987.034 L 260.891 980.539 C 273.485 971.092 290.606 961.059 330.749 939.018 C 423.433 888.244 527.731 841.606 655.643 793.591 C 839.83 724.32 1142.688 643.243 1315.069 616.877 L 1332.979 614.12 L 1330.222 609.79 C 1314.483 585.388 1303.656 570.237 1290.666 554.101 C 1252.886 507.265 1207.038 469.287 1150.951 437.8 C 1073.811 394.706 974.037 361.056 847.704 336.064 C 823.893 331.339 771.548 322.288 729.043 315.794 C 638.913 301.825 580.665 292.181 516.514 281.161 C 493.492 277.223 459.051 271.321 436.224 266.403 C 424.417 263.842 401.789 258.53 384.078 252.43 C 369.91 246.917 349.442 241.407 345.113 224.68 L 345.113 224.68 Z  M 395.887 273.878 C 396.081 273.684 399.229 274.861 403.364 276.24 C 410.842 278.795 420.483 281.748 431.9 284.899 C 440.537 287.274 449.196 289.57 457.875 291.785 C 469.682 294.735 479.52 297.491 479.716 297.491 C 481.096 298.87 500.972 362.427 507.663 386.829 C 510.217 396.081 512.189 403.95 511.992 403.95 C 511.79 404.15 509.628 400.802 507.071 396.277 C 484.046 355.738 447.641 314.611 405.528 281.549 C 400.02 277.617 395.887 274.075 395.887 273.878 Z  M 492.705 300.641 C 493.69 300.641 498.019 301.232 503.329 302.412 C 536.784 309.889 596.805 321.303 635.176 327.798 C 641.671 328.78 646.789 329.964 646.789 330.355 C 646.789 330.751 644.425 332.125 641.472 333.702 C 634.981 337.046 608.807 352.59 600.15 358.495 C 578.305 373.057 558.629 388.8 544.459 402.968 C 538.753 408.676 533.831 413.398 533.831 413.398 C 533.831 413.398 532.654 410.054 531.666 405.919 C 524.586 378.565 509.824 338.026 496.443 309.494 C 494.278 304.97 492.505 300.836 492.505 300.444 C 492.505 300.837 492.505 300.641 492.705 300.641 L 492.705 300.641 Z  M 663.12 333.111 C 664.301 333.503 666.269 340.194 670.204 354.952 C 677.486 383.488 680.832 415.367 679.652 445.082 C 679.256 453.347 678.864 461.02 678.468 462.007 L 677.879 463.972 L 667.647 460.628 C 646.59 453.938 612.351 443.899 583.031 435.636 C 566.301 431.11 552.727 426.977 552.727 426.584 C 552.727 425.402 577.129 401.001 587.558 391.753 C 607.429 374.237 661.348 332.519 663.12 333.111 L 663.12 333.111 Z  M 676.699 335.076 C 677.29 334.489 758.169 348.458 794.968 355.543 C 822.323 360.855 862.073 369.121 864.433 370.107 C 865.614 370.499 861.48 372.86 848.295 378.763 C 796.345 402.183 757.773 423.236 719.404 448.82 C 709.367 455.511 700.904 461.02 700.708 461.02 C 700.512 461.02 700.315 455.315 700.315 448.427 C 700.315 411.039 692.837 373.255 679.059 341.376 C 677.682 338.227 676.502 335.276 676.699 335.076 L 676.699 335.076 Z  M 885.882 376.404 C 886.473 376.994 883.913 392.935 881.552 402.379 C 874.469 431.7 855.381 475.193 831.966 516.122 C 827.83 523.403 824.092 529.307 823.696 529.503 C 823.306 529.699 817.992 526.746 811.89 523.205 C 789.064 509.823 763.089 497.23 734.75 485.421 C 726.882 482.077 719.992 479.32 719.796 478.93 C 718.415 477.747 781.782 435.832 815.236 415.76 C 841.803 399.625 885.094 375.615 885.882 376.404 L 885.882 376.404 Z  M 900.836 378.764 C 902.609 378.764 938.424 388.604 957.116 394.114 C 1003.363 407.891 1056.493 427.371 1091.128 443.113 L 1105.491 449.61 L 1095.458 451.969 C 1010.843 471.45 938.424 493.886 868.564 522.223 C 862.857 524.584 857.74 526.552 857.35 526.552 C 856.955 526.552 858.923 522.027 861.481 516.515 C 882.538 471.845 896.116 425.207 899.458 385.454 C 899.659 381.714 900.245 378.764 900.836 378.764 L 900.836 378.764 Z  M 544.263 460.628 C 544.852 460.037 572.206 466.532 586.965 470.661 C 609.398 476.961 657.019 492.898 657.019 494.081 C 657.019 494.277 651.707 498.803 645.412 504.315 C 619.633 525.764 594.836 548.392 565.12 577.124 C 556.264 585.588 548.788 592.475 548.396 592.475 C 548.001 592.475 547.807 591.292 548.001 589.718 C 552.526 556.657 551.545 514.153 545.247 471.057 C 544.655 465.545 544.066 460.824 544.263 460.628 L 544.263 460.628 Z  M 1119.075 461.22 C 1119.464 461.611 1106.479 482.077 1098.214 493.686 C 1086.409 510.609 1069.087 533.047 1029.927 582.243 C 1009.268 608.216 986.044 637.539 978.372 647.378 C 970.497 657.217 964.006 665.48 963.807 665.48 C 963.611 665.48 961.056 661.94 958.299 657.611 C 936.258 624.55 909.887 595.622 878.598 569.647 C 872.695 564.726 866.204 559.413 864.039 557.838 C 861.874 556.265 860.102 554.69 860.102 554.494 C 860.102 553.906 893.552 539.537 918.942 529.306 C 963.416 511.201 1024.02 489.555 1069.482 475.582 C 1093.293 468.106 1118.679 460.824 1119.075 461.22 L 1119.075 461.22 Z  M 1134.226 465.153 C 1135.011 464.958 1139.736 467.319 1145.443 470.661 C 1193.263 498.014 1240.095 533.241 1277.094 569.45 C 1287.522 579.685 1313.301 606.447 1312.905 606.643 C 1312.905 606.643 1303.854 607.43 1293.229 608.216 C 1210.382 614.515 1104.317 632.027 1002.38 656.624 C 995.493 658.197 989.394 659.575 988.998 659.575 C 988.609 659.575 996.281 651.902 1005.925 642.654 C 1065.746 584.996 1093.102 548.591 1125.372 483.649 C 1129.896 474.01 1133.834 465.744 1134.226 465.153 C 1134.03 465.153 1134.03 465.153 1134.226 465.153 L 1134.226 465.153 Z  M 695.983 510.023 C 698.74 510.61 724.322 522.618 743.606 532.258 C 761.317 541.11 787.885 555.282 789.261 556.461 C 789.457 556.657 780.01 561.577 768.404 567.285 C 731.406 585.783 699.724 603.295 666.662 623.368 C 657.217 629.075 649.346 633.801 649.15 633.801 C 648.363 633.801 648.559 633.009 653.873 623.368 C 671.584 591.098 685.751 552.527 693.821 514.939 C 694.606 511.988 695.394 510.023 695.983 510.023 L 695.983 510.023 Z  M 670.4 514.743 C 670.992 515.335 664.301 539.538 660.17 552.723 C 652.099 577.715 638.522 609.003 625.339 632.618 C 622.187 638.126 617.465 646.195 614.907 650.72 L 609.989 658.591 L 598.969 647.968 C 586.179 635.569 575.747 627.895 562.368 621.005 C 557.052 618.253 552.921 615.889 552.921 615.498 C 552.921 613.924 586.571 583.422 612.35 561.382 C 630.847 545.442 669.811 514.154 670.4 514.743 L 670.4 514.743 Z  M 826.849 579.094 L 836.492 585.389 C 858.527 599.757 884.502 618.843 904.382 635.569 C 915.595 644.816 937.241 664.301 941.574 669.023 L 943.932 671.584 L 927.996 676.109 C 837.866 701.098 768.205 723.336 686.931 753.249 C 677.879 756.593 670.204 759.348 669.612 759.348 C 668.435 759.348 667.448 760.331 687.72 741.635 C 739.672 693.821 785.718 641.078 819.96 589.717 L 826.849 579.094 L 826.849 579.094 Z  M 785.719 589.326 C 786.111 589.718 759.153 627.697 743.015 649.147 C 723.73 674.73 689.488 717.629 665.875 745.57 C 656.038 757.183 647.578 766.824 647.182 767.022 C 646.59 767.218 646.394 764.267 646.394 759.741 C 646.394 735.927 640.295 710.542 629.667 688.898 C 625.141 679.846 624.353 677.681 625.34 676.698 C 629.078 673.351 686.342 640.685 722.55 621.204 C 746.951 608.217 785.124 588.932 785.719 589.326 L 785.719 589.326 Z  M 536.98 650.33 C 537.571 650.33 542.098 652.689 547.215 655.446 C 559.809 662.333 571.026 670.007 581.061 678.274 C 581.453 678.666 576.339 682.8 569.648 687.717 C 550.953 701.098 522.616 722.55 506.089 735.735 C 488.767 749.51 488.181 749.903 490.147 746.952 C 503.136 727.076 509.627 715.859 516.517 701.495 C 522.616 688.705 528.715 673.552 533.045 660.366 C 534.618 654.659 536.588 650.33 536.98 650.33 Z  M 603.299 702.28 C 604.28 702.086 605.464 703.854 610.775 711.727 C 621.992 728.451 630.651 750.888 632.819 768.991 L 633.208 772.929 L 606.252 783.359 C 558.036 802.052 513.566 820.551 483.453 834.324 C 474.994 838.261 460.234 845.344 450.594 850.07 C 440.95 854.986 433.079 858.726 433.079 858.53 C 433.079 858.334 439.178 853.808 446.655 848.296 C 505.498 805.595 556.464 758.758 594.639 711.924 C 598.773 707.003 602.513 702.477 602.904 702.281 L 603.299 702.28 L 603.299 702.28 Z  M 572.798 709.759 C 573.585 710.546 551.152 735.93 535.803 751.476 C 497.823 790.245 460.236 820.551 413.597 850.07 C 407.694 853.808 402.381 857.152 401.79 857.547 C 400.411 858.334 402.182 856.365 422.648 834.128 C 435.638 820.156 445.476 808.349 456.693 793.789 C 464.17 784.148 465.548 782.769 476.373 775.091 C 505.301 754.232 572.01 708.971 572.798 709.759 Z " fill="url(#_rgradient_1)"/></g></g></svg>