<?xml version="1.0" encoding="UTF-8" standalone="no"?><!-- Generator: Gravit.io --><svg xmlns="http://www.w3.org/2000/svg" xmlns:xlink="http://www.w3.org/1999/xlink" style="isolation:isolate" viewBox="0 0 1000 1000" width="1000pt" height="1000pt"><defs><clipPath id="_clipPath_EnCjBia8vdTGKDO0sbJBC67W8nv9I2xG"><rect width="1000" height="1000"/></clipPath></defs><g clip-path="url(#_clipPath_EnCjBia8vdTGKDO0sbJBC67W8nv9I2xG)"><path d=" M 609.011 700.718 C 454.845 700.718 422.525 630.286 422.525 570.576 C 422.525 564.958 427.08 560.403 432.699 560.403 L 478.244 560.403 C 483.245 560.42 487.492 564.07 488.261 569.011 C 495.148 615.418 515.573 638.816 608.855 638.816 C 683.121 638.816 714.658 621.835 714.658 582.706 C 714.658 560.012 705.659 543.578 590.308 531.918 C 493.817 522.37 433.794 501.163 433.794 423.923 C 433.794 352.866 493.739 310.529 594.221 310.529 C 707.067 310.529 762.943 349.657 769.986 433.862 C 770.215 436.74 769.221 439.581 767.247 441.687 C 765.212 443.829 762.374 445.021 759.421 444.974 L 714.423 444.974 C 709.713 444.985 705.622 441.738 704.563 437.149 C 693.529 388.395 666.921 372.743 594.456 372.743 C 513.382 372.587 503.912 400.837 503.912 421.967 C 503.912 447.635 515.025 455.148 624.428 469.625 C 733.831 484.103 784.228 504.449 784.228 580.437 C 784.228 656.424 720.214 701.187 608.542 701.187 L 609.011 700.718 L 609.011 700.718 Z  M 500.156 980.877 C 487.192 980.884 474.454 977.484 463.219 971.017 L 345.834 901.368 C 328.226 891.508 336.834 888.064 342.625 885.717 C 361.294 879.851 379.168 871.703 395.84 861.457 C 398.672 860.128 401.99 860.365 404.605 862.083 L 494.991 915.689 C 498.423 917.484 502.516 917.484 505.947 915.689 L 858.103 712.221 C 861.457 710.211 863.508 706.585 863.503 702.674 L 863.503 296.521 C 863.515 292.547 861.434 288.86 858.025 286.817 L 505.869 83.35 C 502.508 81.39 498.352 81.39 494.991 83.35 L 142.836 286.817 C 139.397 288.803 137.279 292.472 137.279 296.443 L 137.279 703.378 C 137.27 707.29 139.362 710.906 142.757 712.847 L 239.248 768.566 C 291.445 794.469 323.922 763.558 323.922 732.568 L 323.922 331.189 C 323.9 328.471 324.976 325.859 326.906 323.944 C 328.835 322.029 331.455 320.973 334.173 321.016 L 378.702 321.016 C 381.406 320.994 384.006 322.06 385.919 323.972 C 387.831 325.884 388.896 328.484 388.875 331.189 L 388.875 732.725 C 388.875 802.608 350.764 842.284 284.559 842.284 C 264.212 842.284 248.091 842.284 203.328 820.216 L 110.437 767.314 C 87.579 753.987 73.516 729.525 73.5 703.065 L 73.5 296.13 C 73.451 269.653 87.532 245.161 110.437 231.881 L 463.141 28.413 C 486.238 15.818 514.152 15.818 537.25 28.413 L 889.406 231.881 C 912.469 245.215 926.623 269.881 926.499 296.521 L 926.499 703.457 C 926.436 729.904 912.385 754.343 889.562 767.705 L 537.406 971.173 C 526.118 977.65 513.327 981.05 500.313 981.033 L 500.313 981.033 L 500.156 980.877 L 500.156 980.877 Z " fill-rule="evenodd" fill="rgb(130,192,0)"/></g></svg>