<?xml version="1.0" encoding="UTF-8" standalone="no"?><!-- Generator: Gravit.io --><svg xmlns="http://www.w3.org/2000/svg" xmlns:xlink="http://www.w3.org/1999/xlink" style="isolation:isolate" viewBox="0 0 1000 1000" width="1000pt" height="1000pt"><defs><clipPath id="_clipPath_RVVG3hUoFeSlNnkYg2ywyRzp229LvkdU"><rect width="1000" height="1000"/></clipPath></defs><g clip-path="url(#_clipPath_RVVG3hUoFeSlNnkYg2ywyRzp229LvkdU)"><g><path d=" M 38.089 140.736 C 38.089 84.045 84.045 38.089 140.736 38.089 L 859.264 38.089 C 915.955 38.089 961.911 84.045 961.911 140.736 L 961.911 859.264 C 961.911 915.955 915.955 961.911 859.264 961.911 L 140.736 961.911 C 84.045 961.911 38.089 915.955 38.089 859.264 L 38.089 140.736 Z " fill="rgb(3,169,244)"/><g><path d=" M 397.764 376.156 L 346.389 376.156 L 346.389 489.941 L 397.019 489.941 C 411.056 489.941 421.911 485.347 429.61 476.16 C 437.308 466.973 441.132 453.604 441.132 436.051 C 441.132 417.831 437.206 403.358 429.353 392.58 C 421.501 381.802 410.954 376.336 397.764 376.156 Z " fill="rgb(2,15,22)"/><path d=" M 115.074 115.074 L 115.074 884.926 L 884.926 884.926 L 884.926 115.074 L 115.074 115.074 Z  M 483.705 520.247 C 462.508 540.982 433.1 551.323 395.505 551.323 L 346.389 551.323 L 346.389 679.632 L 272.714 679.632 L 272.714 314.748 L 397.019 314.748 C 433.1 314.748 461.892 325.962 483.346 348.339 C 504.799 370.716 515.551 399.791 515.551 435.538 C 515.551 471.285 504.927 499.512 483.705 520.247 Z  M 722.795 662.593 C 704.601 677.297 680.684 684.636 651.122 684.636 C 631.234 684.636 613.682 680.761 598.49 672.986 C 583.298 665.21 571.365 654.381 562.769 640.524 C 554.172 626.666 549.861 611.706 549.861 595.667 L 617.274 595.667 C 617.633 608.01 620.482 617.3 625.922 623.484 C 631.362 629.669 640.241 632.748 652.61 632.748 C 671.651 632.748 681.172 624.151 681.172 606.932 C 681.172 600.928 678.298 595.359 672.524 590.278 C 666.75 585.197 653.97 578.32 634.083 569.62 C 604.854 557.765 584.761 545.498 573.803 532.77 C 562.846 520.042 557.38 504.286 557.38 485.398 C 557.38 461.661 565.951 442.081 583.067 426.633 C 600.183 411.185 622.894 403.461 651.096 403.461 C 680.813 403.461 704.627 411.159 722.513 426.505 C 740.399 441.85 749.329 462.508 749.329 488.401 L 678.4 488.401 C 678.4 466.357 669.239 455.323 650.84 455.323 C 643.321 455.323 637.162 457.658 632.286 462.329 C 627.411 466.999 625.024 473.543 625.024 481.883 C 625.024 487.888 627.693 493.2 633.056 497.793 C 638.419 502.387 650.994 508.956 670.907 517.476 C 699.828 528.177 720.229 540.084 732.187 553.197 C 744.146 566.31 750.099 583.324 750.099 604.187 C 750.099 628.437 740.989 647.889 722.795 662.593 Z " fill="rgb(2,15,22)"/></g></g></g></svg>