<?xml version="1.0" encoding="UTF-8" standalone="no"?><!-- Generator: Gravit.io --><svg xmlns="http://www.w3.org/2000/svg" xmlns:xlink="http://www.w3.org/1999/xlink" style="isolation:isolate" viewBox="0 0 720 720" width="720pt" height="720pt"><defs><clipPath id="_clipPath_go7CXDUakxyZsD2iJGRGvyxc9YQV8DKc"><rect width="720" height="720"/></clipPath></defs><g clip-path="url(#_clipPath_go7CXDUakxyZsD2iJGRGvyxc9YQV8DKc)"><path d=" M 231.484 2.144 C 227.865 2.256 223.967 3.593 219.547 7.081 C 208.72 2.905 198.22 1.454 188.828 9.956 C 174.334 8.075 169.618 11.957 166.047 16.487 C 162.864 16.421 142.228 13.215 132.766 27.331 C 108.984 24.518 101.469 41.319 109.984 56.987 C 105.127 64.506 100.095 71.934 111.453 86.269 C 107.435 94.252 109.926 102.913 119.391 113.394 C 116.893 124.616 121.803 132.534 130.609 138.706 C 128.962 154.064 144.693 162.993 149.391 166.175 C 151.194 175.123 154.954 183.567 172.922 188.237 C 175.885 201.573 186.684 203.876 197.141 206.675 C 162.579 226.764 132.94 253.197 133.141 318.05 L 128.078 327.081 C 88.447 351.183 52.793 428.647 108.547 491.612 C 112.189 511.321 118.296 525.476 123.734 541.144 C 131.868 604.274 184.952 633.835 198.953 637.331 C 219.47 652.959 241.321 667.788 270.891 678.175 C 298.766 706.924 328.965 717.881 359.328 717.862 C 359.773 717.862 360.227 717.867 360.672 717.862 C 391.036 717.881 421.234 706.924 449.109 678.175 C 478.679 667.788 500.53 652.959 521.047 637.331 C 535.048 633.835 588.132 604.274 596.266 541.144 C 601.704 525.476 607.811 511.321 611.453 491.612 C 667.207 428.647 631.553 351.183 591.922 327.081 L 586.859 318.05 C 587.06 253.197 557.421 226.764 522.859 206.675 C 533.316 203.876 544.115 201.573 547.078 188.237 C 565.046 183.567 568.806 175.123 570.609 166.175 C 575.307 162.993 591.038 154.064 589.391 138.706 C 598.197 132.534 603.107 124.616 600.609 113.394 C 610.074 102.913 612.565 94.252 608.547 86.269 C 619.905 71.934 614.873 64.506 610.016 56.987 C 618.531 41.319 611.016 24.518 587.234 27.331 C 577.772 13.215 557.136 16.421 553.953 16.487 C 550.382 11.957 545.666 8.075 531.172 9.956 C 521.78 1.454 511.28 2.905 500.453 7.081 C 487.594 -3.066 479.081 5.068 469.359 8.144 C 453.786 3.056 450.226 10.024 442.578 12.862 C 425.603 9.274 420.443 17.086 412.297 25.331 L 402.828 25.144 C 377.218 40.237 364.494 70.969 359.984 86.769 C 355.472 70.967 342.778 40.234 317.172 25.144 L 307.703 25.331 C 299.557 17.086 294.397 9.274 277.422 12.862 C 269.774 10.024 266.214 3.056 250.641 8.144 C 244.261 6.125 238.394 1.929 231.484 2.144 Z " fill="rgb(0,0,0)"/><path d=" M 180.501 68.543 C 248.449 103.574 287.948 131.912 309.588 156.047 C 298.506 200.465 240.692 202.492 219.553 201.246 C 223.881 199.231 227.493 196.818 228.773 193.11 C 223.469 189.34 204.66 192.713 191.53 185.336 C 196.574 184.291 198.933 183.273 201.293 179.551 C 188.887 175.594 175.524 172.184 167.665 165.629 C 171.906 165.682 175.866 166.578 181.405 162.737 C 170.293 156.749 158.436 152.003 149.224 142.849 C 154.969 142.709 161.163 142.793 162.964 140.68 C 152.794 134.379 144.213 127.372 137.111 119.708 C 145.151 120.678 148.546 119.842 150.489 118.442 C 142.802 110.568 133.072 103.919 128.432 94.216 C 134.402 96.273 139.864 97.061 143.8 94.035 C 141.188 88.141 129.995 84.665 123.551 70.893 C 129.835 71.503 136.501 72.264 137.834 70.893 C 134.911 59.005 129.906 52.323 124.997 45.401 C 138.447 45.201 158.825 45.454 157.902 44.316 L 149.585 35.819 C 162.723 32.282 176.166 36.387 185.925 39.435 C 190.307 35.977 185.847 31.605 180.501 27.141 C 191.666 28.632 201.755 31.198 210.875 34.734 C 215.747 30.335 207.711 25.936 203.824 21.536 C 221.073 24.809 228.381 29.407 235.643 34.011 C 240.913 28.96 235.945 24.668 232.389 20.271 C 245.395 25.088 252.094 31.306 259.147 37.446 C 261.538 34.219 265.222 31.854 260.774 24.067 C 270.008 29.39 276.963 35.662 282.108 42.689 C 287.821 39.051 285.512 34.076 285.543 29.491 C 295.139 37.298 301.23 45.605 308.684 53.718 C 310.186 52.624 311.501 48.916 312.662 43.051 C 335.557 65.263 367.908 121.209 320.978 143.392 C 281.06 110.445 233.362 86.504 180.501 68.543 Z " fill="rgb(117,169,40)"/><path d=" M 541.034 68.543 C 473.087 103.574 433.587 131.912 411.947 156.047 C 423.029 200.465 480.843 202.492 501.983 201.246 C 497.654 199.231 494.043 196.818 492.762 193.11 C 498.067 189.34 516.875 192.713 530.006 185.336 C 524.962 184.291 522.602 183.273 520.243 179.551 C 532.649 175.594 546.012 172.184 553.871 165.629 C 549.629 165.682 545.669 166.578 540.13 162.737 C 551.242 156.749 563.099 152.003 572.312 142.849 C 566.566 142.709 560.372 142.793 558.571 140.68 C 568.742 134.379 577.323 127.372 584.425 119.708 C 576.385 120.678 572.99 119.842 571.046 118.442 C 578.734 110.568 588.464 103.919 593.103 94.216 C 587.133 96.273 581.672 97.061 577.735 94.035 C 580.348 88.141 591.541 84.665 597.984 70.893 C 591.7 71.503 585.035 72.264 583.702 70.893 C 586.624 59.005 591.629 52.323 596.538 45.401 C 583.088 45.201 562.71 45.454 563.634 44.316 L 571.95 35.819 C 558.812 32.282 545.369 36.387 535.61 39.435 C 531.229 35.977 535.688 31.605 541.034 27.141 C 529.869 28.632 519.78 31.198 510.661 34.734 C 505.788 30.335 513.825 25.936 517.712 21.536 C 500.462 24.809 493.155 29.407 485.892 34.011 C 480.623 28.96 485.59 24.668 489.146 20.271 C 476.141 25.088 469.441 31.306 462.389 37.446 C 459.998 34.219 456.314 31.854 460.762 24.067 C 451.527 29.39 444.572 35.662 439.428 42.689 C 433.714 39.051 436.024 34.076 435.993 29.491 C 426.396 37.298 420.306 45.605 412.851 53.718 C 411.349 52.624 410.034 48.916 408.874 43.051 C 385.978 65.263 353.628 121.209 400.557 143.392 C 440.476 110.445 488.173 86.504 541.034 68.543 L 541.034 68.543 Z " fill="rgb(117,169,40)"/><path d=" M 443.056 520.848 C 443.056 562.298 406.616 595.9 361.666 595.9 C 316.715 595.9 280.276 562.298 280.276 520.848 C 280.276 479.398 316.715 445.797 361.666 445.797 C 406.616 445.797 443.056 479.398 443.056 520.848 Z " fill="rgb(188,17,66)"/><path d=" M 314.563 306.45 C 348.287 328.544 354.367 378.627 328.142 418.312 C 301.917 457.997 253.32 472.257 219.596 450.162 C 185.872 428.067 179.792 377.985 206.017 338.3 C 232.242 298.615 280.839 284.355 314.563 306.45 Z " fill="rgb(188,17,66)"/><path d=" M 405.596 302.45 C 371.872 324.544 365.792 374.627 392.017 414.312 C 418.242 453.997 466.839 468.257 500.563 446.162 C 534.287 424.067 540.367 373.985 514.142 334.3 C 487.917 294.615 439.32 280.355 405.596 302.45 Z " fill="rgb(188,17,66)"/><path d=" M 146.02 342.575 C 182.434 332.818 158.311 493.212 128.686 480.051 C 96.099 453.838 85.603 377.075 146.02 342.575 Z " fill="rgb(188,17,66)"/><path d=" M 566.788 340.575 C 530.373 330.818 554.496 491.212 584.121 478.051 C 616.708 451.838 627.204 375.075 566.788 340.575 Z " fill="rgb(188,17,66)"/><path d=" M 443.081 221.141 C 505.916 210.531 558.197 247.863 556.092 315.999 C 554.025 342.12 419.934 225.03 443.081 221.141 L 443.081 221.141 Z " fill="rgb(188,17,66)"/><path d=" M 269.469 219.141 C 206.634 208.531 154.353 245.863 156.458 313.999 C 158.525 340.12 292.616 223.03 269.469 219.141 Z " fill="rgb(188,17,66)"/><path d=" M 359.729 203.243 C 322.226 202.267 286.233 231.077 286.147 247.787 C 286.042 268.092 315.798 288.88 359.984 289.408 C 405.107 289.731 433.9 272.767 434.045 251.814 C 434.21 228.074 393.007 202.876 359.729 203.243 L 359.729 203.243 Z " fill="rgb(188,17,66)"/><path d=" M 362.019 619.604 C 394.716 618.177 438.59 630.136 438.676 646 C 439.218 661.405 398.886 696.211 359.849 695.538 C 319.422 697.282 279.78 662.422 280.3 650.339 C 279.695 632.623 329.526 618.791 362.019 619.604 Z " fill="rgb(188,17,66)"/><path d=" M 241.248 525.591 C 264.527 553.637 275.139 602.91 255.712 617.434 C 237.332 628.522 192.699 623.956 160.975 578.383 C 139.58 540.141 142.338 501.226 157.36 489.794 C 179.824 476.109 214.533 494.593 241.248 525.591 Z " fill="rgb(188,17,66)"/><path d=" M 478.13 516.699 C 452.943 546.201 438.918 600.009 457.292 617.342 C 474.861 630.805 522.022 628.923 556.858 580.586 C 582.154 548.121 573.678 493.904 559.229 479.511 C 537.765 462.909 506.952 484.156 478.13 516.699 L 478.13 516.699 Z " fill="rgb(188,17,66)"/></g></svg>