<?xml version="1.0" encoding="UTF-8" standalone="no"?><!-- Generator: Gravit.io --><svg xmlns="http://www.w3.org/2000/svg" xmlns:xlink="http://www.w3.org/1999/xlink" style="isolation:isolate" viewBox="0 0 1000 1000" width="1000pt" height="1000pt"><defs><clipPath id="_clipPath_dSxmNA1viLc7jXjSlRgSdpMaL8W48cGa"><rect width="1000" height="1000"/></clipPath></defs><g clip-path="url(#_clipPath_dSxmNA1viLc7jXjSlRgSdpMaL8W48cGa)"><path d=" M 980.758 500.117 C 980.758 436.423 901.023 376.094 778.721 338.613 C 806.968 213.963 794.37 114.822 739.127 83.054 C 726.373 75.62 711.505 72.099 695.23 72.099 L 695.23 115.84 C 704.228 115.84 711.505 117.639 717.609 120.926 C 744.291 136.184 755.794 194.401 746.795 269.285 C 744.604 287.673 741.083 307.079 736.78 326.876 C 698.36 317.486 656.418 310.209 612.365 305.514 C 585.917 269.285 558.452 236.342 530.83 207.547 C 594.681 148.078 654.619 115.605 695.386 115.605 L 695.386 71.864 L 695.386 71.864 C 641.473 71.864 570.971 110.284 499.609 176.952 C 428.246 110.675 357.744 72.647 303.831 72.647 L 303.831 116.387 C 344.364 116.387 404.537 148.704 468.466 207.703 C 441.001 236.499 413.614 269.206 387.557 305.514 C 343.269 310.209 301.327 317.486 262.907 327.032 C 258.369 307.47 255.083 288.456 252.735 270.224 C 243.502 195.34 254.926 137.123 281.374 121.63 C 287.243 118.109 294.911 116.544 303.91 116.544 L 303.91 72.881 L 303.91 72.881 C 287.477 72.881 272.532 76.402 259.621 83.836 C 204.534 115.605 192.171 214.589 220.653 338.848 C 98.586 376.407 19.242 436.58 19.242 500.117 C 19.242 563.812 98.977 624.141 221.279 661.622 C 193.032 786.272 205.63 885.412 260.873 917.181 C 273.627 924.615 288.495 928.136 305.005 928.136 C 358.918 928.136 429.42 889.716 500.782 823.048 C 572.145 889.325 642.647 927.353 696.56 927.353 C 712.992 927.353 727.937 923.832 740.848 916.399 C 795.935 884.63 808.299 785.646 779.816 661.387 C 901.414 623.985 980.758 563.577 980.758 500.117 L 980.758 500.117 L 980.758 500.117 Z  M 589.36 500.117 C 589.36 450.664 549.296 410.523 499.765 410.523 C 450.312 410.523 410.171 450.586 410.171 500.117 C 410.171 549.649 450.234 589.712 499.765 589.712 C 549.296 589.633 589.36 549.57 589.36 500.117 L 589.36 500.117 L 589.36 500.117 Z  M 303.597 72.647 L 303.597 72.647 L 303.597 72.647 L 303.597 72.647 L 303.597 72.647 Z  M 725.59 369.364 C 718.313 394.639 709.314 420.695 699.142 446.752 C 691.082 431.102 682.71 415.374 673.477 399.725 C 664.478 384.075 654.854 368.738 645.229 353.871 C 673.085 358.018 699.925 363.104 725.59 369.364 L 725.59 369.364 L 725.59 369.364 Z  M 635.839 578.131 C 620.581 604.579 604.853 629.697 588.577 653.015 C 559.391 655.597 529.813 656.927 500 656.927 C 470.422 656.927 440.844 655.519 411.814 653.171 C 395.538 629.853 379.654 604.97 364.396 578.679 C 349.528 553.013 335.991 526.957 323.628 500.665 C 335.757 474.374 349.528 448.16 364.161 422.495 C 379.419 396.047 395.147 370.929 411.423 347.611 C 440.609 345.029 470.187 343.699 500 343.699 C 529.578 343.699 559.156 345.107 588.186 347.455 C 604.462 370.773 620.346 395.656 635.604 421.947 C 650.472 447.613 664.009 473.669 676.372 499.961 C 664.009 526.174 650.55 552.387 635.839 578.131 L 635.839 578.131 L 635.839 578.131 Z  M 699.142 552.622 C 709.706 578.913 718.704 605.127 726.216 630.636 C 700.551 636.896 673.477 642.216 645.464 646.285 C 655.088 631.183 664.635 615.69 673.711 599.806 C 682.632 584.156 691.082 568.272 699.142 552.622 L 699.142 552.622 L 699.142 552.622 Z  M 500.391 761.702 C 482.159 742.922 463.928 721.951 445.93 699.025 C 463.536 699.807 481.612 700.433 499.844 700.433 C 518.232 700.433 536.464 700.042 554.304 699.025 C 536.62 721.951 518.388 742.922 500.391 761.702 L 500.391 761.702 L 500.391 761.702 Z  M 354.615 646.285 C 326.758 642.138 299.919 637.052 274.253 630.792 C 281.531 605.518 290.529 579.461 300.701 553.405 C 308.761 569.054 317.134 584.782 326.367 600.432 C 335.6 616.16 344.99 631.418 354.615 646.285 L 354.615 646.285 L 354.615 646.285 Z  M 499.374 238.455 C 517.606 257.234 535.838 278.205 553.835 301.132 C 536.229 300.349 518.154 299.723 499.922 299.723 C 481.533 299.723 463.302 300.115 445.461 301.132 C 463.145 278.205 481.377 257.234 499.374 238.455 L 499.374 238.455 L 499.374 238.455 Z  M 354.38 353.871 C 344.755 368.973 335.209 384.466 326.132 400.351 C 317.134 416 308.683 431.728 300.623 447.378 C 290.06 421.087 281.061 394.873 273.549 369.364 C 299.293 363.261 326.367 358.018 354.38 353.871 L 354.38 353.871 L 354.38 353.871 Z  M 176.991 599.258 C 107.584 569.68 62.748 530.869 62.748 500.117 C 62.748 469.366 107.663 430.32 176.991 400.977 C 193.814 393.7 212.281 387.283 231.295 381.18 C 242.485 419.6 257.195 459.585 275.427 500.509 C 257.43 541.276 242.876 581.026 231.921 619.29 C 212.516 613.186 194.049 606.535 176.991 599.258 L 176.991 599.258 L 176.991 599.258 Z  M 282.47 879.309 C 255.787 864.05 244.284 805.834 253.283 730.95 C 255.474 712.562 258.995 693.156 263.299 673.359 C 301.719 682.749 343.66 690.026 387.714 694.721 C 414.162 730.95 441.627 763.893 469.248 792.688 C 405.319 852.078 345.381 884.63 304.614 884.63 C 295.772 884.395 288.338 882.674 282.47 879.309 L 282.47 879.309 L 282.47 879.309 Z  M 747.343 730.011 C 756.576 804.895 745.152 863.112 718.704 878.605 C 712.836 882.126 705.167 883.691 696.169 883.691 C 655.636 883.691 595.463 851.374 531.534 792.375 C 558.999 763.58 586.386 730.872 612.443 694.565 C 656.731 689.87 698.673 682.593 737.093 672.968 C 741.631 692.765 745.152 711.779 747.343 730.011 L 747.343 730.011 L 747.343 730.011 Z  M 822.774 599.258 C 805.951 606.535 787.484 612.952 768.47 619.055 C 757.281 580.635 742.57 540.65 724.338 499.726 C 742.335 458.959 756.889 419.209 767.844 380.945 C 787.25 387.048 805.638 393.7 822.931 400.898 C 892.337 430.476 937.174 469.288 937.174 500.039 C 937.017 530.869 892.181 569.837 822.774 599.258 L 822.774 599.258 L 822.774 599.258 Z " fill-rule="evenodd" fill="rgb(97,218,251)"/></g></svg>