<?xml version="1.0" encoding="UTF-8" standalone="no"?><!-- Generator: Gravit.io --><svg xmlns="http://www.w3.org/2000/svg" xmlns:xlink="http://www.w3.org/1999/xlink" style="isolation:isolate" viewBox="0 0 1000 1000" width="1000pt" height="1000pt"><defs><clipPath id="_clipPath_Ud0PtC52RKrgChPoXP0tMnjAuiB8JpSb"><rect width="1000" height="1000"/></clipPath></defs><g clip-path="url(#_clipPath_Ud0PtC52RKrgChPoXP0tMnjAuiB8JpSb)"><g><path d=" M 849.007 553.8 C 815.162 553.957 785.882 562.143 761.325 574.186 C 752.274 556.24 743.222 540.577 741.648 528.849 C 739.916 515.232 737.87 506.968 739.916 490.675 C 741.963 474.461 751.408 451.399 751.408 449.51 C 751.25 447.779 749.361 439.514 729.841 439.278 C 710.4 439.121 693.556 443.056 691.667 448.172 C 689.778 453.288 686 465.016 683.56 477.058 C 680.176 494.847 644.678 557.735 624.45 590.793 C 617.838 577.964 612.171 566.629 611.069 557.578 C 609.338 543.961 607.291 535.697 609.338 519.404 C 611.384 503.19 620.829 480.128 620.829 478.239 C 620.672 476.507 618.783 468.243 599.263 468.007 C 579.822 467.849 562.978 471.785 561.089 476.901 C 559.2 482.017 557.154 494.06 552.982 505.787 C 549.046 517.515 501.821 622.513 489.542 649.904 C 483.324 663.914 477.815 675.012 473.879 682.568 C 469.944 690.124 473.722 683.119 473.328 683.906 C 469.944 690.36 468.055 693.902 468.055 693.902 L 468.055 694.06 C 465.379 698.782 462.545 703.347 461.286 703.347 C 460.341 703.347 458.452 690.675 461.679 673.28 C 468.684 636.838 485.686 579.931 485.449 577.885 C 485.449 576.94 488.677 566.944 474.509 561.828 C 460.735 556.712 455.776 565.213 454.674 565.213 C 453.572 565.213 452.628 568.204 452.628 568.204 C 452.628 568.204 467.897 504.134 423.348 504.134 C 395.406 504.134 356.839 534.516 337.791 562.3 C 325.67 568.912 300.011 582.922 272.777 597.798 C 262.388 603.465 251.605 609.526 241.451 614.957 L 239.405 612.674 C 185.331 555.295 85.371 514.524 89.542 437.074 C 91.038 408.896 100.877 334.674 281.514 244.788 C 429.409 171.116 547.866 191.344 568.488 236.287 C 597.767 300.514 505.205 419.916 351.408 437.074 C 292.848 443.686 262.073 421.018 254.281 412.517 C 246.174 403.623 244.993 403.229 242.002 404.961 C 237.122 407.637 240.113 415.508 242.002 420.23 C 246.567 432.116 265.457 453.288 297.571 463.835 C 325.749 473.123 394.462 478.16 477.579 446.047 C 570.691 409.998 643.419 309.801 622.089 226.134 C 600.365 141.049 459.082 113.029 325.512 160.49 C 246.016 188.826 159.83 233.06 97.886 291.069 C 24.214 359.782 12.486 419.837 17.366 444.788 C 34.525 533.808 157.154 591.738 206.268 634.634 C 203.828 635.972 201.546 637.31 199.499 638.412 C 174.942 650.533 81.435 699.412 57.98 751.202 C 31.534 809.762 62.152 851.95 82.537 857.617 C 145.662 875.169 210.282 843.607 245.229 791.659 C 280.019 739.711 275.847 672.257 259.79 641.482 L 259.239 640.38 L 278.523 629.046 C 290.959 621.647 303.238 614.878 314.021 609.054 C 307.96 625.504 303.631 644.945 301.349 673.28 C 298.673 706.496 312.289 749.628 330.235 766.629 C 338.185 774.028 347.63 774.186 353.454 774.186 C 374.233 774.186 383.679 757.027 394.068 736.405 C 406.898 711.297 418.232 682.175 418.232 682.175 C 418.232 682.175 404.064 760.962 442.789 760.962 C 456.957 760.962 471.124 742.623 477.579 733.178 L 477.579 733.335 C 477.579 733.335 477.972 732.785 478.68 731.446 C 479.468 730.266 480.255 729.085 480.963 727.826 L 480.963 727.432 C 486.63 717.594 499.302 695.162 518.192 657.932 C 542.592 609.92 565.969 549.864 565.969 549.864 C 565.969 549.864 568.252 564.583 575.257 588.747 C 579.428 603.072 588.48 618.814 595.485 634.083 C 589.818 642.033 586.433 646.519 586.433 646.519 L 586.591 646.677 C 582.026 652.737 576.988 659.113 571.636 665.567 C 552.352 688.629 529.29 714.839 526.3 722.395 C 522.679 731.289 523.466 737.901 530.471 743.174 C 535.587 746.952 544.639 747.739 554.241 746.952 C 571.636 745.85 583.679 741.443 589.739 738.845 C 599.184 735.461 609.967 730.345 620.357 722.788 C 639.247 708.778 650.739 688.944 649.637 662.497 C 649.086 647.936 644.363 633.611 638.46 619.994 C 640.192 617.554 641.845 615.114 643.576 612.438 C 673.407 568.833 696.469 520.821 696.469 520.821 C 696.469 520.821 698.751 535.539 705.756 559.703 C 709.377 571.982 716.54 585.362 722.915 598.585 C 694.973 621.411 677.421 647.857 671.361 665.252 C 660.184 697.365 668.921 711.927 685.371 715.311 C 692.769 716.807 703.316 713.422 711.266 710.038 C 721.105 706.81 732.99 701.38 743.93 693.194 C 762.821 679.184 780.924 659.742 779.979 633.532 C 779.428 621.411 776.201 609.526 771.872 598.192 C 795.642 588.353 826.496 582.686 865.536 587.409 C 949.597 597.247 966.205 649.746 963.057 671.627 C 959.83 693.509 942.277 705.63 936.453 709.408 C 930.628 713.029 928.739 714.288 929.29 716.964 C 930.078 720.899 932.675 720.742 937.791 719.955 C 944.796 718.853 982.026 702.009 983.521 661.553 C 985.804 609.92 936.453 553.249 849.007 553.8 L 849.007 553.8 L 849.007 553.8 Z  M 200.68 772.375 C 172.895 802.757 133.777 814.327 117.169 804.489 C 99.224 794.099 106.229 749.313 140.389 717.043 C 161.168 697.365 188.165 679.262 205.953 668.086 C 209.889 665.646 215.949 662.025 223.112 657.696 C 224.214 656.909 225.001 656.594 225.001 656.594 C 226.339 655.807 227.834 654.862 229.33 653.918 C 242.002 700.042 229.96 740.419 200.68 772.375 L 200.68 772.375 Z  M 403.749 634.319 C 394.147 657.932 373.682 718.617 361.404 715.154 C 350.857 712.32 344.403 666.433 359.357 621.096 C 366.913 598.271 382.97 571.037 392.415 560.49 C 407.685 543.489 424.371 537.822 428.464 544.827 C 433.423 553.8 409.81 619.522 403.749 634.319 L 403.749 634.319 Z  M 571.321 714.367 C 567.15 716.413 563.372 717.987 561.719 716.807 C 560.381 716.019 563.45 713.186 563.45 713.186 C 563.45 713.186 584.387 690.675 592.73 680.286 C 597.453 674.225 603.12 667.22 609.18 659.349 L 609.18 661.631 C 609.102 688.865 583.049 707.047 571.321 714.367 L 571.321 714.367 Z  M 700.562 684.929 C 697.571 682.647 697.885 675.642 708.118 653.761 C 712.053 645.103 721.183 630.541 736.847 616.767 C 738.736 622.434 739.837 627.944 739.68 632.981 C 739.444 666.984 715.28 679.656 700.562 684.929 L 700.562 684.929 L 700.562 684.929 Z " fill-rule="evenodd" fill="rgb(255,255,255)"/></g></g></svg>