<?xml version="1.0" encoding="UTF-8" standalone="no"?><!-- Generator: Gravit.io --><svg xmlns="http://www.w3.org/2000/svg" xmlns:xlink="http://www.w3.org/1999/xlink" style="isolation:isolate" viewBox="0 0 1000 1000" width="1000pt" height="1000pt"><defs><clipPath id="_clipPath_rImP1nKDxdkabh2Z7BCHuAGrrGF4KnWd"><rect width="1000" height="1000"/></clipPath></defs><g clip-path="url(#_clipPath_rImP1nKDxdkabh2Z7BCHuAGrrGF4KnWd)"><g><rect x="7.795" y="197.979" width="984.365" height="604.042" transform="matrix(1,0,0,1,0,0)" fill="rgb(236,239,241)"/><g><rect x="7.84" y="197.979" width="984.365" height="67.116" transform="matrix(1,0,0,1,0,0)" fill="rgb(244,67,54)"/><rect x="7.84" y="332.21" width="984.365" height="67.116" transform="matrix(1,0,0,1,0,0)" fill="rgb(244,67,54)"/><rect x="7.84" y="466.442" width="984.365" height="67.116" transform="matrix(1,0,0,1,0,0)" fill="rgb(244,67,54)"/><rect x="7.84" y="600.674" width="984.365" height="67.116" transform="matrix(1,0,0,1,0,0)" fill="rgb(244,67,54)"/><rect x="7.84" y="734.905" width="984.365" height="67.116" transform="matrix(1,0,0,1,0,0)" fill="rgb(244,67,54)"/></g><rect x="7.84" y="197.979" width="469.811" height="335.579" transform="matrix(1,0,0,1,0,0)" fill="rgb(63,81,181)"/><g><path d=" M 58.177 242.723 L 68.535 264.826 L 91.734 268.361 L 74.956 285.587 L 78.938 309.839 L 58.177 298.384 L 37.415 309.839 L 41.398 285.587 L 24.619 268.361 L 47.818 264.826 L 58.177 242.723 Z " fill="rgb(255,255,255)"/><path d=" M 147.664 242.723 L 158.023 264.826 L 181.222 268.361 L 164.443 285.587 L 168.425 309.839 L 147.664 298.384 L 126.903 309.839 L 130.885 285.587 L 114.106 268.361 L 137.306 264.826 L 147.664 242.723 Z " fill="rgb(255,255,255)"/><path d=" M 237.152 242.723 L 247.51 264.826 L 270.71 268.361 L 253.931 285.587 L 257.913 309.839 L 237.152 298.384 L 216.391 309.839 L 220.373 285.587 L 203.594 268.361 L 226.794 264.826 L 237.152 242.723 Z " fill="rgb(255,255,255)"/><path d=" M 326.64 242.723 L 336.998 264.826 L 360.198 268.361 L 343.419 285.587 L 347.401 309.839 L 326.64 298.384 L 305.879 309.839 L 309.861 285.587 L 293.082 268.361 L 316.282 264.826 L 326.64 242.723 Z " fill="rgb(255,255,255)"/><path d=" M 410.535 242.723 L 420.893 264.826 L 444.093 268.361 L 427.314 285.587 L 431.296 309.839 L 410.535 298.384 L 389.773 309.839 L 393.756 285.587 L 376.977 268.361 L 400.176 264.826 L 410.535 242.723 Z " fill="rgb(255,255,255)"/><path d=" M 58.177 421.698 L 68.535 443.802 L 91.734 447.336 L 74.956 464.563 L 78.938 488.814 L 58.177 477.36 L 37.415 488.814 L 41.398 464.563 L 24.619 447.336 L 47.818 443.802 L 58.177 421.698 Z " fill="rgb(255,255,255)"/><path d=" M 147.664 421.698 L 158.023 443.802 L 181.222 447.336 L 164.443 464.563 L 168.425 488.814 L 147.664 477.36 L 126.903 488.814 L 130.885 464.563 L 114.106 447.336 L 137.306 443.802 L 147.664 421.698 Z " fill="rgb(255,255,255)"/><path d=" M 237.152 421.698 L 247.51 443.802 L 270.71 447.336 L 253.931 464.563 L 257.913 488.814 L 237.152 477.36 L 216.391 488.814 L 220.373 464.563 L 203.594 447.336 L 226.794 443.802 L 237.152 421.698 Z " fill="rgb(255,255,255)"/><path d=" M 326.64 421.698 L 336.998 443.802 L 360.198 447.336 L 343.419 464.563 L 347.401 488.814 L 326.64 477.36 L 305.879 488.814 L 309.861 464.563 L 293.082 447.336 L 316.282 443.802 L 326.64 421.698 Z " fill="rgb(255,255,255)"/><path d=" M 410.535 421.698 L 420.893 443.802 L 444.093 447.336 L 427.314 464.563 L 431.296 488.814 L 410.535 477.36 L 389.773 488.814 L 393.756 464.563 L 376.977 447.336 L 400.176 443.802 L 410.535 421.698 Z " fill="rgb(255,255,255)"/><path d=" M 80.549 332.21 L 90.907 354.314 L 114.106 357.849 L 97.327 375.075 L 101.31 399.326 L 80.549 387.872 L 59.787 399.326 L 63.77 375.075 L 46.991 357.849 L 70.19 354.314 L 80.549 332.21 Z " fill="rgb(255,255,255)"/><path d=" M 170.036 332.21 L 180.394 354.314 L 203.594 357.849 L 186.815 375.075 L 190.797 399.326 L 170.036 387.872 L 149.275 399.326 L 153.257 375.075 L 136.478 357.849 L 159.678 354.314 L 170.036 332.21 Z " fill="rgb(255,255,255)"/><path d=" M 259.524 332.21 L 269.882 354.314 L 293.082 357.849 L 276.303 375.075 L 280.285 399.326 L 259.524 387.872 L 238.763 399.326 L 242.745 375.075 L 225.966 357.849 L 249.166 354.314 L 259.524 332.21 Z " fill="rgb(255,255,255)"/><path d=" M 349.012 332.21 L 359.37 354.314 L 382.57 357.849 L 365.791 375.075 L 369.773 399.326 L 349.012 387.872 L 328.251 399.326 L 332.233 375.075 L 315.454 357.849 L 338.654 354.314 L 349.012 332.21 Z " fill="rgb(255,255,255)"/><path d=" M 432.907 332.21 L 443.265 354.314 L 466.464 357.849 L 449.686 375.075 L 453.668 399.326 L 432.907 387.872 L 412.145 399.326 L 416.128 375.075 L 399.349 357.849 L 422.548 354.314 L 432.907 332.21 Z " fill="rgb(255,255,255)"/></g></g></g></svg>