<?xml version="1.0" encoding="UTF-8" standalone="no"?><!-- Generator: Gravit.io --><svg xmlns="http://www.w3.org/2000/svg" xmlns:xlink="http://www.w3.org/1999/xlink" style="isolation:isolate" viewBox="0 0 512 512" width="512pt" height="512pt"><defs><clipPath id="_clipPath_gHikLqV9n4ZvxG8k5bvNJgtAVfAgKhPL"><rect width="512" height="512"/></clipPath></defs><g clip-path="url(#_clipPath_gHikLqV9n4ZvxG8k5bvNJgtAVfAgKhPL)"><path d=" M 509.179 217.851 C 501.112 209.586 490.569 202.491 477.435 197.131 C 458.136 189.252 436.235 191.603 412.975 200.422 C 358.996 125.388 283.554 148.397 241.716 190.172 C 259.615 170.695 284.985 145.534 326.969 127.123 C 370.698 107.939 447.676 116.925 493.348 159.881 C 500.788 178.239 506.159 197.663 509.179 217.851 Z " fill="rgb(87,46,148)"/><path d=" M 512 255.791 L 512 256 C 512 281.851 508.165 306.813 501.029 330.344 C 490.141 340.887 476.275 349.79 459.672 355.954 C 433.957 365.515 406.058 366.027 378.494 360.834 C 421.398 338.097 440.603 283.146 429.192 236.167 C 426.099 223.388 420.739 211.204 412.975 200.421 C 436.234 191.602 458.135 189.251 477.435 197.13 C 490.569 202.49 501.112 209.585 509.179 217.85 L 509.179 217.86 C 511.028 230.243 511.99 242.897 512 255.791 Z " fill="rgb(92,85,169)"/><path d=" M 501.029 330.344 C 499.43 335.631 497.654 340.856 495.721 345.986 C 450.038 394.845 369.288 407.217 312.341 381.032 C 296.427 373.718 283.554 365.369 273.011 356.404 L 273.011 356.394 C 316.186 376.634 351.901 374.93 378.493 360.835 C 406.057 366.028 433.956 365.516 459.671 355.955 C 476.275 349.79 490.141 340.887 501.029 330.344 Z " fill="rgb(87,93,175)"/><path d=" M 412.974 200.425 C 364.188 218.888 309.393 265.783 259.928 306.367 C 248.246 297.736 238.037 288.969 229.793 280.725 C 227.682 278.614 225.488 276.514 223.21 274.414 C 217.599 257.602 212.96 242.294 205.217 230.706 C 212.813 221.553 218.654 214.322 222.479 210.717 C 228.017 205.493 234.182 198.356 241.653 190.237 C 241.674 190.216 241.695 190.195 241.716 190.174 C 283.553 148.4 358.995 125.391 412.974 200.425 Z " fill="rgb(81,85,170)"/><path d=" M 378.492 360.838 C 351.899 374.934 316.185 376.637 273.01 356.397 L 273.01 356.407 C 259.729 345.112 250.137 332.813 242.802 320.295 C 248.424 315.771 254.139 311.11 259.928 306.367 C 291.839 329.971 334.732 352.593 378.492 360.838 Z " fill="rgb(84,123,196)"/><path d=" M 259.928 306.367 C 254.139 311.111 248.424 315.771 242.802 320.295 C 233.732 304.841 228.1 289.063 223.21 274.414 C 225.488 276.514 227.682 278.614 229.793 280.725 C 238.037 288.97 248.246 297.736 259.928 306.367 Z " fill="rgb(55,109,183)"/><path d=" M 223.21 274.414 C 228.1 289.063 233.732 304.841 242.802 320.295 C 217.641 340.514 194.308 357.89 174.413 367.451 C 151.404 378.506 122.994 383.051 95.043 379.739 C 63.424 367.326 41.116 344.265 32.203 319.051 C 38.357 321.141 45.013 322.666 52.161 323.565 C 108.627 330.618 157.946 284.757 189.805 248.771 C 202.061 256.557 213.398 265.386 223.21 274.414 Z " fill="rgb(32,156,220)"/><path d=" M 205.217 230.706 C 212.96 242.294 217.599 257.602 223.21 274.414 C 213.398 265.386 202.061 256.557 189.805 248.772 C 195.52 242.305 200.682 236.161 205.217 230.706 Z " fill="rgb(60,102,180)"/><path d=" M 205.218 230.703 C 200.683 236.157 195.521 242.301 189.806 248.769 C 184.184 245.195 178.364 241.852 172.419 238.811 C 130.122 217.171 80.98 210.85 45.892 249.375 C 27.261 269.824 23.834 295.392 32.204 319.049 C 21.191 315.319 11.818 309.791 4.295 302.926 C 1.473 287.713 0 272.029 0 256 C 0 235.05 2.518 214.685 7.272 195.187 C 20.385 181.603 37.125 171.928 54.251 166.828 C 75.807 160.412 99.223 160.632 122.232 167.674 C 122.242 167.684 122.263 167.684 122.274 167.695 C 151.688 176.702 180.412 196.837 203.672 228.477 C 204.204 229.198 204.727 229.94 205.218 230.703 Z " fill="rgb(105,192,241)"/><g><path d=" M 95.044 379.737 C 65.223 376.195 35.934 363.719 14.336 340.668 C 10.073 328.484 6.698 315.873 4.295 302.926 C 11.818 309.791 21.191 315.318 32.204 319.049 C 41.117 344.263 63.425 367.323 95.044 379.737 Z " fill="rgb(0,151,217)"/><path d=" M 205.217 230.706 C 200.682 236.16 195.52 242.304 189.805 248.772 C 184.183 245.198 178.363 241.855 172.418 238.814 C 172.418 193.789 151.05 180.289 122.273 167.698 C 151.687 176.705 180.411 196.84 203.671 228.48 C 204.203 229.201 204.726 229.943 205.217 230.706 Z " fill="rgb(0,151,217)"/></g><path d=" M 512 255.791 C 506.169 250.692 499.242 246.032 491.018 242.061 C 463.422 228.759 443.036 230.557 429.191 236.168 C 426.098 223.389 420.738 211.205 412.974 200.422 C 436.233 191.603 458.134 189.252 477.434 197.131 C 490.568 202.491 501.111 209.586 509.178 217.851 C 511.028 230.233 511.99 242.897 512 255.791 Z " fill="rgb(78,46,139)"/></g></svg>