<?xml version="1.0" encoding="UTF-8" standalone="no"?><!-- Generator: Gravit.io --><svg xmlns="http://www.w3.org/2000/svg" xmlns:xlink="http://www.w3.org/1999/xlink" style="isolation:isolate" viewBox="0 0 200 200" width="200pt" height="200pt"><defs><clipPath id="_clipPath_54Y0HfubOr2rYlF317hHufx7RKOO4qUk"><rect width="200" height="200"/></clipPath></defs><g clip-path="url(#_clipPath_54Y0HfubOr2rYlF317hHufx7RKOO4qUk)"><path d=" M 144.6 14.8 L 55.4 14.8 C 52.5 14.8 49.9 16.3 48.5 18.8 L 3.9 96 C 2.4 98.5 2.4 101.6 3.9 104 L 48.5 181.2 C 50 183.7 52.6 185.2 55.4 185.2 L 144.6 185.2 C 147.5 185.2 150.1 183.7 151.5 181.2 L 196.1 104 C 197.6 101.5 197.6 98.4 196.1 96 L 151.5 18.8 C 150.1 16.3 147.4 14.8 144.6 14.8 Z " fill="rgb(255,225,0)"/><linearGradient id="_lgradient_0" x1="0.5009186351706032" y1="-0.0004678217821777464" x2="0.500918635170603" y2="0.9994059405940597" gradientTransform="matrix(76.2,0,0,80.8,86.2,77.6)" gradientUnits="userSpaceOnUse"><stop offset="0%" stop-opacity="1" style="stop-color:rgb(255,225,0)"/><stop offset="16.37%" stop-opacity="1" style="stop-color:rgb(255,221,2)"/><stop offset="33.339999999999996%" stop-opacity="1" style="stop-color:rgb(255,208,10)"/><stop offset="50.580000000000005%" stop-opacity="1" style="stop-color:rgb(255,188,22)"/><stop offset="67.89%" stop-opacity="1" style="stop-color:rgb(255,159,39)"/><stop offset="80%" stop-opacity="1" style="stop-color:rgb(255,134,54)"/><stop offset="100%" stop-opacity="1" style="stop-color:rgb(255,110,54)"/></linearGradient><path d=" M 133.9 80.1 L 86.2 157.7 C 87 158.1 87.9 158.4 88.9 158.4 L 110.8 158.4 C 111.5 158.4 112.3 158.3 112.8 158 C 113.1 157.9 113.3 157.7 113.6 157.6 C 113.9 157.5 114.3 157.2 114.5 156.9 C 114.9 156.6 115.2 156.2 115.4 155.8 L 161.6 80.5 C 162.1 79.6 162.4 78.5 162.4 77.6 L 138.4 77.6 C 136.6 77.6 134.9 78.5 133.9 80.1 Z " fill="url(#_lgradient_0)"/><linearGradient id="_lgradient_1" x1="0.30082988871224137" y1="-0.03548114901256716" x2="0.7041049284578693" y2="0.9145776745168446" gradientTransform="matrix(62.9,0,0,55.7,37.4,56.6)" gradientUnits="userSpaceOnUse"><stop offset="0%" stop-opacity="1" style="stop-color:rgb(255,225,0)"/><stop offset="20.29%" stop-opacity="1" style="stop-color:rgb(255,216,6)"/><stop offset="53.37%" stop-opacity="1" style="stop-color:rgb(255,192,23)"/><stop offset="94.91000000000001%" stop-opacity="1" style="stop-color:rgb(255,152,50)"/><stop offset="100%" stop-opacity="1" style="stop-color:rgb(255,147,54)"/></linearGradient><path d=" M 66.9 80.1 L 86.4 112.3 L 100.3 90.3 L 81.1 59.1 C 80 57.5 78.3 56.6 76.4 56.6 L 53.2 56.6 C 51.3 56.6 49.6 57.5 48.7 59 L 38.3 74.8 C 37.8 75.7 37.4 76.7 37.4 77.7 L 62.5 77.7 C 64.1 77.6 65.8 78.5 66.9 80.1 Z " fill="url(#_lgradient_1)"/><path d=" M 161.6 74.6 L 151.2 58.8 C 150.1 57.3 148.5 56.4 146.7 56.4 L 124.4 56.4 C 122.5 56.4 120.8 57.3 119.7 58.9 L 86.2 112.2 L 66.7 80 C 65.8 78.4 63.9 77.3 62 77.3 L 36.9 77.3 C 36.9 78.4 37.2 79.3 37.7 80.2 L 73 137.6 L 83.9 155.4 C 84.4 156.2 85.1 156.9 85.9 157.3 L 133.7 79.8 C 134.6 78.2 136.5 77.1 138.4 77.1 L 162.4 77.1 C 162.5 76.5 162.2 75.4 161.6 74.6 Z " fill="rgb(255,255,255)"/></g></svg>