<?xml version="1.0" encoding="UTF-8" standalone="no"?><!-- Generator: Gravit.io --><svg xmlns="http://www.w3.org/2000/svg" xmlns:xlink="http://www.w3.org/1999/xlink" style="isolation:isolate" viewBox="0 0 1000 1000" width="1000pt" height="1000pt"><defs><clipPath id="_clipPath_CXkbErwge0YLouXZWnrfOl3nCqV5XGDB"><rect width="1000" height="1000"/></clipPath></defs><g clip-path="url(#_clipPath_CXkbErwge0YLouXZWnrfOl3nCqV5XGDB)"><g><path d=" M 474.533 825.122 L 474.533 525.44 L 882.007 525.44 L 882.007 881.98 L 474.533 825.095 L 474.533 825.122 Z  M 474.533 174.905 L 882.007 117.993 L 882.007 474.533 L 474.533 474.533 L 474.533 174.932 L 474.533 174.905 Z  M 117.993 775.394 L 117.993 525.44 L 423.599 525.44 L 423.599 817.91 L 117.993 775.34 L 117.993 775.394 Z  M 117.993 474.56 L 117.993 224.633 L 423.599 182.063 L 423.599 474.533 L 117.993 474.533 L 117.993 474.56 Z " fill-rule="evenodd" fill="rgb(33,150,243)"/><rect x="17.465" y="17.465" width="965.071" height="965.071" transform="matrix(1,0,0,1,0,0)" fill="none"/></g></g></svg>